<?xml version="1.0" encoding="utf-8" standalone="no"?>
<!DOCTYPE svg PUBLIC "-//W3C//DTD SVG 1.1//EN"
  "http://www.w3.org/Graphics/SVG/1.1/DTD/svg11.dtd">
<!-- Created with matplotlib (https://matplotlib.org/) -->
<svg height="864pt" version="1.1" viewBox="0 0 1296 864" width="1296pt" xmlns="http://www.w3.org/2000/svg" xmlns:xlink="http://www.w3.org/1999/xlink">
 <defs>
  <style type="text/css">
*{stroke-linecap:butt;stroke-linejoin:round;white-space:pre;}
  </style>
 </defs>
 <g id="figure_1">
  <g id="patch_1">
   <path d="M 0 864 
L 1296 864 
L 1296 0 
L 0 0 
z
" style="fill:#ffffff;"/>
  </g>
  <g id="axes_1">
   <g id="patch_2">
    <path d="M 73.95 380.9 
L 462.766667 380.9 
L 462.766667 39.2 
L 73.95 39.2 
z
" style="fill:#e5e5e5;"/>
   </g>
   <g id="matplotlib.axis_1">
    <g id="xtick_1">
     <g id="line2d_1">
      <defs>
       <path d="M 0 0 
L 0 3.5 
" id="m9c8e58d2cf" style="stroke:#555555;stroke-width:0.8;"/>
      </defs>
      <g>
       <use style="fill:#555555;stroke:#555555;stroke-width:0.8;" x="138.752778" xlink:href="#m9c8e58d2cf" y="380.9"/>
      </g>
     </g>
     <g id="text_1">
      <!-- Dynamic -->
      <defs>
       <path d="M 24.703125 5.171875 
L 33.796875 5.171875 
Q 48 5.171875 55.59375 13.28125 
Q 63.1875 21.390625 63.1875 36.53125 
Q 63.1875 51.65625 55.609375 59.65625 
Q 48.046875 67.671875 33.796875 67.671875 
L 24.703125 67.671875 
z
M 5.515625 0 
L 5.515625 5.171875 
L 14.796875 5.171875 
L 14.796875 67.671875 
L 5.515625 67.671875 
L 5.515625 72.90625 
L 34.515625 72.90625 
Q 53.375 72.90625 63.890625 63.28125 
Q 74.421875 53.65625 74.421875 36.53125 
Q 74.421875 19.34375 63.875 9.671875 
Q 53.328125 0 34.515625 0 
z
" id="DejaVuSerif-68"/>
       <path d="M 21.578125 -9.515625 
L 25 -0.875 
L 5.609375 46.6875 
L -0.296875 46.6875 
L -0.296875 51.90625 
L 23.578125 51.90625 
L 23.578125 46.6875 
L 15.28125 46.6875 
L 29.890625 10.984375 
L 44.484375 46.6875 
L 36.71875 46.6875 
L 36.71875 51.90625 
L 56.203125 51.90625 
L 56.203125 46.6875 
L 50.390625 46.6875 
L 26.609375 -11.71875 
Q 24.171875 -17.78125 21.1875 -20 
Q 18.21875 -22.21875 12.796875 -22.21875 
Q 10.5 -22.21875 8.078125 -21.828125 
Q 5.671875 -21.4375 3.21875 -20.703125 
L 3.21875 -10.796875 
L 7.8125 -10.796875 
Q 8.109375 -14.109375 9.5 -15.546875 
Q 10.890625 -17 13.8125 -17 
Q 16.5 -17 18.140625 -15.5 
Q 19.78125 -14.015625 21.578125 -9.515625 
z
" id="DejaVuSerif-121"/>
       <path d="M 4.109375 0 
L 4.109375 5.171875 
L 12.203125 5.171875 
L 12.203125 46.6875 
L 3.609375 46.6875 
L 3.609375 51.90625 
L 21.1875 51.90625 
L 21.1875 42.671875 
Q 23.6875 47.953125 27.65625 50.640625 
Q 31.640625 53.328125 36.921875 53.328125 
Q 45.515625 53.328125 49.5625 48.390625 
Q 53.609375 43.453125 53.609375 33.015625 
L 53.609375 5.171875 
L 61.625 5.171875 
L 61.625 0 
L 36.8125 0 
L 36.8125 5.171875 
L 44.578125 5.171875 
L 44.578125 30.171875 
Q 44.578125 39.703125 42.234375 43.234375 
Q 39.890625 46.78125 33.984375 46.78125 
Q 27.734375 46.78125 24.453125 42.203125 
Q 21.1875 37.640625 21.1875 28.90625 
L 21.1875 5.171875 
L 29 5.171875 
L 29 0 
z
" id="DejaVuSerif-110"/>
       <path d="M 39.796875 16.3125 
L 39.796875 27.296875 
L 28.21875 27.296875 
Q 21.53125 27.296875 18.25 24.40625 
Q 14.984375 21.53125 14.984375 15.578125 
Q 14.984375 10.15625 18.296875 6.984375 
Q 21.625 3.8125 27.296875 3.8125 
Q 32.90625 3.8125 36.34375 7.28125 
Q 39.796875 10.75 39.796875 16.3125 
z
M 48.78125 32.421875 
L 48.78125 5.171875 
L 56.78125 5.171875 
L 56.78125 0 
L 39.796875 0 
L 39.796875 5.609375 
Q 36.8125 2 32.90625 0.28125 
Q 29 -1.421875 23.78125 -1.421875 
Q 15.140625 -1.421875 10.0625 3.171875 
Q 4.984375 7.765625 4.984375 15.578125 
Q 4.984375 23.640625 10.796875 28.078125 
Q 16.609375 32.515625 27.203125 32.515625 
L 39.796875 32.515625 
L 39.796875 36.078125 
Q 39.796875 42 36.203125 45.234375 
Q 32.625 48.484375 26.125 48.484375 
Q 20.75 48.484375 17.578125 46.046875 
Q 14.40625 43.609375 13.625 38.8125 
L 8.984375 38.8125 
L 8.984375 49.3125 
Q 13.671875 51.3125 18.09375 52.3125 
Q 22.515625 53.328125 26.703125 53.328125 
Q 37.5 53.328125 43.140625 47.96875 
Q 48.78125 42.625 48.78125 32.421875 
z
" id="DejaVuSerif-97"/>
       <path d="M 51.8125 41.796875 
Q 54.390625 47.515625 58.421875 50.421875 
Q 62.453125 53.328125 67.828125 53.328125 
Q 75.984375 53.328125 79.984375 48.265625 
Q 83.984375 43.21875 83.984375 33.015625 
L 83.984375 5.171875 
L 92.09375 5.171875 
L 92.09375 0 
L 67.1875 0 
L 67.1875 5.171875 
L 75 5.171875 
L 75 31.984375 
Q 75 39.9375 72.65625 43.3125 
Q 70.3125 46.6875 64.890625 46.6875 
Q 58.890625 46.6875 55.734375 42.140625 
Q 52.59375 37.59375 52.59375 28.90625 
L 52.59375 5.171875 
L 60.40625 5.171875 
L 60.40625 0 
L 35.796875 0 
L 35.796875 5.171875 
L 43.609375 5.171875 
L 43.609375 32.328125 
Q 43.609375 40.09375 41.265625 43.390625 
Q 38.921875 46.6875 33.5 46.6875 
Q 27.484375 46.6875 24.328125 42.140625 
Q 21.1875 37.59375 21.1875 28.90625 
L 21.1875 5.171875 
L 29 5.171875 
L 29 0 
L 4.109375 0 
L 4.109375 5.171875 
L 12.203125 5.171875 
L 12.203125 46.78125 
L 3.609375 46.78125 
L 3.609375 51.90625 
L 21.1875 51.90625 
L 21.1875 42.671875 
Q 23.6875 47.859375 27.53125 50.59375 
Q 31.390625 53.328125 36.28125 53.328125 
Q 42.328125 53.328125 46.375 50.3125 
Q 50.4375 47.3125 51.8125 41.796875 
z
" id="DejaVuSerif-109"/>
       <path d="M 9.71875 68.015625 
Q 9.71875 70.265625 11.34375 71.921875 
Q 12.984375 73.578125 15.28125 73.578125 
Q 17.53125 73.578125 19.15625 71.921875 
Q 20.796875 70.265625 20.796875 68.015625 
Q 20.796875 65.71875 19.1875 64.109375 
Q 17.578125 62.5 15.28125 62.5 
Q 12.984375 62.5 11.34375 64.109375 
Q 9.71875 65.71875 9.71875 68.015625 
z
M 21.1875 5.171875 
L 29.6875 5.171875 
L 29.6875 0 
L 3.609375 0 
L 3.609375 5.171875 
L 12.203125 5.171875 
L 12.203125 46.6875 
L 3.609375 46.6875 
L 3.609375 51.90625 
L 21.1875 51.90625 
z
" id="DejaVuSerif-105"/>
       <path d="M 51.421875 15.578125 
Q 49.515625 7.28125 44.09375 2.921875 
Q 38.671875 -1.421875 30.078125 -1.421875 
Q 18.75 -1.421875 11.859375 6.078125 
Q 4.984375 13.578125 4.984375 25.984375 
Q 4.984375 38.421875 11.859375 45.875 
Q 18.75 53.328125 30.078125 53.328125 
Q 35.015625 53.328125 39.890625 52.171875 
Q 44.78125 51.03125 49.703125 48.6875 
L 49.703125 35.40625 
L 44.484375 35.40625 
Q 43.453125 42.234375 40.015625 45.359375 
Q 36.578125 48.484375 30.171875 48.484375 
Q 22.90625 48.484375 19.1875 42.84375 
Q 15.484375 37.203125 15.484375 25.984375 
Q 15.484375 14.75 19.171875 9.078125 
Q 22.859375 3.421875 30.171875 3.421875 
Q 35.984375 3.421875 39.453125 6.4375 
Q 42.921875 9.46875 44.1875 15.578125 
z
" id="DejaVuSerif-99"/>
      </defs>
      <g style="fill:#555555;" transform="translate(105.489106 399.084375)scale(0.15 -0.15)">
       <use xlink:href="#DejaVuSerif-68"/>
       <use x="80.175781" xlink:href="#DejaVuSerif-121"/>
       <use x="136.669922" xlink:href="#DejaVuSerif-110"/>
       <use x="201.074219" xlink:href="#DejaVuSerif-97"/>
       <use x="260.693359" xlink:href="#DejaVuSerif-109"/>
       <use x="355.517578" xlink:href="#DejaVuSerif-105"/>
       <use x="387.5" xlink:href="#DejaVuSerif-99"/>
      </g>
     </g>
    </g>
    <g id="xtick_2">
     <g id="line2d_2">
      <g>
       <use style="fill:#555555;stroke:#555555;stroke-width:0.8;" x="268.358333" xlink:href="#m9c8e58d2cf" y="380.9"/>
      </g>
     </g>
     <g id="text_2">
      <!-- Static -->
      <defs>
       <path d="M 9.28125 3.515625 
L 9.28125 20.125 
L 14.890625 20.0625 
Q 15.140625 11.765625 19.703125 7.78125 
Q 24.265625 3.8125 33.59375 3.8125 
Q 42.28125 3.8125 46.84375 7.25 
Q 51.421875 10.6875 51.421875 17.28125 
Q 51.421875 22.5625 48.65625 25.390625 
Q 45.90625 28.21875 37.015625 30.90625 
L 27.390625 33.796875 
Q 16.9375 36.96875 12.671875 41.703125 
Q 8.40625 46.4375 8.40625 54.6875 
Q 8.40625 63.96875 14.984375 69.09375 
Q 21.578125 74.21875 33.5 74.21875 
Q 38.578125 74.21875 44.625 73.109375 
Q 50.6875 72.015625 57.515625 69.921875 
L 57.515625 54.390625 
L 52 54.390625 
Q 51.171875 62.109375 46.84375 65.546875 
Q 42.53125 69 33.6875 69 
Q 25.984375 69 21.953125 65.84375 
Q 17.921875 62.703125 17.921875 56.6875 
Q 17.921875 51.46875 20.9375 48.484375 
Q 23.96875 45.515625 33.796875 42.578125 
L 42.828125 39.890625 
Q 52.734375 36.921875 56.953125 32.296875 
Q 61.1875 27.6875 61.1875 19.921875 
Q 61.1875 9.328125 54.390625 3.953125 
Q 47.609375 -1.421875 34.1875 -1.421875 
Q 28.171875 -1.421875 21.9375 -0.1875 
Q 15.71875 1.03125 9.28125 3.515625 
z
" id="DejaVuSerif-83"/>
       <path d="M 10.796875 46.6875 
L 2.875 46.6875 
L 2.875 51.90625 
L 10.796875 51.90625 
L 10.796875 68.015625 
L 19.828125 68.015625 
L 19.828125 51.90625 
L 36.71875 51.90625 
L 36.71875 46.6875 
L 19.828125 46.6875 
L 19.828125 13.71875 
Q 19.828125 7.125 21.09375 5.265625 
Q 22.359375 3.421875 25.78125 3.421875 
Q 29.296875 3.421875 30.90625 5.484375 
Q 32.515625 7.5625 32.625 12.203125 
L 39.40625 12.203125 
Q 39.015625 5.125 35.546875 1.84375 
Q 32.078125 -1.421875 25 -1.421875 
Q 17.234375 -1.421875 14.015625 2.015625 
Q 10.796875 5.46875 10.796875 13.71875 
z
" id="DejaVuSerif-116"/>
      </defs>
      <g style="fill:#555555;" transform="translate(246.122005 399.297656)scale(0.15 -0.15)">
       <use xlink:href="#DejaVuSerif-83"/>
       <use x="68.505859" xlink:href="#DejaVuSerif-116"/>
       <use x="108.691406" xlink:href="#DejaVuSerif-97"/>
       <use x="168.310547" xlink:href="#DejaVuSerif-116"/>
       <use x="208.496094" xlink:href="#DejaVuSerif-105"/>
       <use x="240.478516" xlink:href="#DejaVuSerif-99"/>
      </g>
     </g>
    </g>
    <g id="xtick_3">
     <g id="line2d_3">
      <g>
       <use style="fill:#555555;stroke:#555555;stroke-width:0.8;" x="397.963889" xlink:href="#m9c8e58d2cf" y="380.9"/>
      </g>
     </g>
     <g id="text_3">
      <!-- Shuffled -->
      <defs>
       <path d="M 4.109375 0 
L 4.109375 5.171875 
L 12.203125 5.171875 
L 12.203125 70.796875 
L 3.609375 70.796875 
L 3.609375 75.984375 
L 21.1875 75.984375 
L 21.1875 42.671875 
Q 23.6875 47.953125 27.65625 50.640625 
Q 31.640625 53.328125 36.921875 53.328125 
Q 45.515625 53.328125 49.5625 48.390625 
Q 53.609375 43.453125 53.609375 33.015625 
L 53.609375 5.171875 
L 61.625 5.171875 
L 61.625 0 
L 36.8125 0 
L 36.8125 5.171875 
L 44.578125 5.171875 
L 44.578125 30.171875 
Q 44.578125 39.703125 42.25 43.1875 
Q 39.9375 46.6875 33.984375 46.6875 
Q 27.734375 46.6875 24.453125 42.140625 
Q 21.1875 37.59375 21.1875 28.90625 
L 21.1875 5.171875 
L 29 5.171875 
L 29 0 
z
" id="DejaVuSerif-104"/>
       <path d="M 35.40625 51.90625 
L 52.203125 51.90625 
L 52.203125 5.171875 
L 60.6875 5.171875 
L 60.6875 0 
L 43.21875 0 
L 43.21875 9.1875 
Q 40.71875 4 36.765625 1.28125 
Q 32.8125 -1.421875 27.59375 -1.421875 
Q 18.953125 -1.421875 14.875 3.484375 
Q 10.796875 8.40625 10.796875 18.890625 
L 10.796875 46.6875 
L 2.6875 46.6875 
L 2.6875 51.90625 
L 19.828125 51.90625 
L 19.828125 21.6875 
Q 19.828125 12.203125 22.140625 8.6875 
Q 24.46875 5.171875 30.421875 5.171875 
Q 36.671875 5.171875 39.9375 9.765625 
Q 43.21875 14.359375 43.21875 23.09375 
L 43.21875 46.6875 
L 35.40625 46.6875 
z
" id="DejaVuSerif-117"/>
       <path d="M 43.015625 63.71875 
L 38.28125 63.71875 
Q 38.234375 67.390625 36.203125 69.28125 
Q 34.1875 71.1875 30.328125 71.1875 
Q 25.296875 71.1875 23.234375 68.421875 
Q 21.1875 65.671875 21.1875 58.59375 
L 21.1875 51.90625 
L 35.6875 51.90625 
L 35.6875 46.6875 
L 21.1875 46.6875 
L 21.1875 5.171875 
L 32.71875 5.171875 
L 32.71875 0 
L 3.609375 0 
L 3.609375 5.171875 
L 12.203125 5.171875 
L 12.203125 46.6875 
L 3.609375 46.6875 
L 3.609375 51.90625 
L 12.203125 51.90625 
L 12.203125 58.40625 
Q 12.203125 67.09375 16.71875 71.53125 
Q 21.234375 75.984375 29.984375 75.984375 
Q 33.25 75.984375 36.515625 75.390625 
Q 39.796875 74.8125 43.015625 73.578125 
z
" id="DejaVuSerif-102"/>
       <path d="M 20.515625 5.171875 
L 29 5.171875 
L 29 0 
L 2.875 0 
L 2.875 5.171875 
L 11.53125 5.171875 
L 11.53125 70.796875 
L 2.875 70.796875 
L 2.875 75.984375 
L 20.515625 75.984375 
z
" id="DejaVuSerif-108"/>
       <path d="M 54.203125 25 
L 15.484375 25 
L 15.484375 24.609375 
Q 15.484375 14.109375 19.4375 8.765625 
Q 23.390625 3.421875 31.109375 3.421875 
Q 37.015625 3.421875 40.796875 6.515625 
Q 44.578125 9.625 46.09375 15.71875 
L 53.328125 15.71875 
Q 51.171875 7.171875 45.375 2.875 
Q 39.59375 -1.421875 30.171875 -1.421875 
Q 18.796875 -1.421875 11.890625 6.078125 
Q 4.984375 13.578125 4.984375 25.984375 
Q 4.984375 38.28125 11.765625 45.796875 
Q 18.5625 53.328125 29.59375 53.328125 
Q 41.359375 53.328125 47.65625 46.0625 
Q 53.953125 38.8125 54.203125 25 
z
M 43.609375 30.171875 
Q 43.3125 39.265625 39.765625 43.875 
Q 36.234375 48.484375 29.59375 48.484375 
Q 23.390625 48.484375 19.828125 43.84375 
Q 16.265625 39.203125 15.484375 30.171875 
z
" id="DejaVuSerif-101"/>
       <path d="M 52.484375 5.171875 
L 61.078125 5.171875 
L 61.078125 0 
L 43.5 0 
L 43.5 8.109375 
Q 40.875 3.21875 36.796875 0.890625 
Q 32.71875 -1.421875 26.703125 -1.421875 
Q 17.140625 -1.421875 11.0625 6.171875 
Q 4.984375 13.765625 4.984375 25.984375 
Q 4.984375 38.1875 11.03125 45.75 
Q 17.09375 53.328125 26.703125 53.328125 
Q 32.71875 53.328125 36.796875 51 
Q 40.875 48.6875 43.5 43.796875 
L 43.5 70.796875 
L 35.015625 70.796875 
L 35.015625 75.984375 
L 52.484375 75.984375 
z
M 43.5 23.390625 
L 43.5 28.515625 
Q 43.5 37.84375 39.90625 42.765625 
Q 36.328125 47.703125 29.5 47.703125 
Q 22.5625 47.703125 19.015625 42.234375 
Q 15.484375 36.765625 15.484375 25.984375 
Q 15.484375 15.234375 19.015625 9.71875 
Q 22.5625 4.203125 29.5 4.203125 
Q 36.328125 4.203125 39.90625 9.109375 
Q 43.5 14.015625 43.5 23.390625 
z
" id="DejaVuSerif-100"/>
      </defs>
      <g style="fill:#555555;" transform="translate(365.974045 399.297656)scale(0.15 -0.15)">
       <use xlink:href="#DejaVuSerif-83"/>
       <use x="68.505859" xlink:href="#DejaVuSerif-104"/>
       <use x="132.910156" xlink:href="#DejaVuSerif-117"/>
       <use x="197.314453" xlink:href="#DejaVuSerif-102"/>
       <use x="234.326172" xlink:href="#DejaVuSerif-102"/>
       <use x="271.337891" xlink:href="#DejaVuSerif-108"/>
       <use x="303.320312" xlink:href="#DejaVuSerif-101"/>
       <use x="362.5" xlink:href="#DejaVuSerif-100"/>
      </g>
     </g>
    </g>
    <g id="text_4">
     <!-- Task -->
     <defs>
      <path d="M 19.09375 0 
L 19.09375 5.171875 
L 28.421875 5.171875 
L 28.421875 67.09375 
L 6.984375 67.09375 
L 6.984375 55.71875 
L 0.984375 55.71875 
L 0.984375 72.90625 
L 65.71875 72.90625 
L 65.71875 55.71875 
L 59.71875 55.71875 
L 59.71875 67.09375 
L 38.28125 67.09375 
L 38.28125 5.171875 
L 47.609375 5.171875 
L 47.609375 0 
z
" id="DejaVuSerif-84"/>
      <path d="M 5.609375 2.875 
L 5.609375 14.984375 
L 10.796875 14.984375 
Q 10.984375 9.1875 14.421875 6.296875 
Q 17.875 3.421875 24.609375 3.421875 
Q 30.671875 3.421875 33.84375 5.6875 
Q 37.015625 7.953125 37.015625 12.3125 
Q 37.015625 15.71875 34.6875 17.8125 
Q 32.375 19.921875 24.90625 22.3125 
L 18.40625 24.515625 
Q 11.71875 26.65625 8.71875 29.875 
Q 5.71875 33.109375 5.71875 38.09375 
Q 5.71875 45.21875 10.9375 49.265625 
Q 16.15625 53.328125 25.390625 53.328125 
Q 29.5 53.328125 34.03125 52.25 
Q 38.578125 51.171875 43.40625 49.125 
L 43.40625 37.796875 
L 38.234375 37.796875 
Q 38.03125 42.828125 34.703125 45.65625 
Q 31.390625 48.484375 25.6875 48.484375 
Q 20.015625 48.484375 17.109375 46.484375 
Q 14.203125 44.484375 14.203125 40.484375 
Q 14.203125 37.203125 16.40625 35.21875 
Q 18.609375 33.25 25.203125 31.203125 
L 32.328125 29 
Q 39.703125 26.703125 42.9375 23.265625 
Q 46.1875 19.828125 46.1875 14.40625 
Q 46.1875 7.03125 40.546875 2.796875 
Q 34.90625 -1.421875 25 -1.421875 
Q 19.96875 -1.421875 15.1875 -0.34375 
Q 10.40625 0.734375 5.609375 2.875 
z
" id="DejaVuSerif-115"/>
      <path d="M 28.609375 0 
L 3.421875 0 
L 3.421875 5.171875 
L 11.53125 5.171875 
L 11.53125 70.796875 
L 2.875 70.796875 
L 2.875 75.984375 
L 20.515625 75.984375 
L 20.515625 26.515625 
L 42.390625 46.6875 
L 34.90625 46.6875 
L 34.90625 51.90625 
L 58.40625 51.90625 
L 58.40625 46.6875 
L 49.515625 46.6875 
L 34.078125 32.421875 
L 53.8125 5.171875 
L 61.28125 5.171875 
L 61.28125 0 
L 35.6875 0 
L 35.6875 5.171875 
L 43.109375 5.171875 
L 27.59375 26.515625 
L 20.515625 19.921875 
L 20.515625 5.171875 
L 28.609375 5.171875 
z
" id="DejaVuSerif-107"/>
     </defs>
     <g style="fill:#555555;" transform="translate(246.927083 420.094375)scale(0.18 -0.18)">
      <use xlink:href="#DejaVuSerif-84"/>
      <use x="66.589844" xlink:href="#DejaVuSerif-97"/>
      <use x="126.208984" xlink:href="#DejaVuSerif-115"/>
      <use x="177.527344" xlink:href="#DejaVuSerif-107"/>
     </g>
    </g>
   </g>
   <g id="matplotlib.axis_2">
    <g id="ytick_1">
     <g id="line2d_4">
      <path clip-path="url(#p08461901f3)" d="M 73.95 367.232 
L 462.766667 367.232 
" style="fill:none;stroke:#ffffff;stroke-linecap:square;stroke-width:0.8;"/>
     </g>
     <g id="line2d_5">
      <defs>
       <path d="M 0 0 
L -3.5 0 
" id="mcdb0b4299b" style="stroke:#555555;stroke-width:0.8;"/>
      </defs>
      <g>
       <use style="fill:#555555;stroke:#555555;stroke-width:0.8;" x="73.95" xlink:href="#mcdb0b4299b" y="367.232"/>
      </g>
     </g>
     <g id="text_5">
      <!-- 20 -->
      <defs>
       <path d="M 12.796875 55.515625 
L 7.328125 55.515625 
L 7.328125 68.5 
Q 12.546875 71.296875 17.84375 72.75 
Q 23.140625 74.21875 28.21875 74.21875 
Q 39.59375 74.21875 46.1875 68.703125 
Q 52.78125 63.1875 52.78125 53.71875 
Q 52.78125 43.015625 37.84375 28.125 
Q 36.671875 27 36.078125 26.421875 
L 17.671875 8.015625 
L 48.09375 8.015625 
L 48.09375 17 
L 53.8125 17 
L 53.8125 0 
L 6.78125 0 
L 6.78125 5.328125 
L 28.90625 27.390625 
Q 36.234375 34.71875 39.359375 40.84375 
Q 42.484375 46.96875 42.484375 53.71875 
Q 42.484375 61.078125 38.640625 65.234375 
Q 34.8125 69.390625 28.078125 69.390625 
Q 21.09375 69.390625 17.28125 65.921875 
Q 13.484375 62.453125 12.796875 55.515625 
z
" id="DejaVuSerif-50"/>
       <path d="M 31.78125 3.421875 
Q 39.265625 3.421875 42.96875 11.625 
Q 46.6875 19.828125 46.6875 36.375 
Q 46.6875 52.984375 42.96875 61.1875 
Q 39.265625 69.390625 31.78125 69.390625 
Q 24.3125 69.390625 20.59375 61.1875 
Q 16.890625 52.984375 16.890625 36.375 
Q 16.890625 19.828125 20.59375 11.625 
Q 24.3125 3.421875 31.78125 3.421875 
z
M 31.78125 -1.421875 
Q 19.921875 -1.421875 13.25 8.53125 
Q 6.59375 18.5 6.59375 36.375 
Q 6.59375 54.296875 13.25 64.25 
Q 19.921875 74.21875 31.78125 74.21875 
Q 43.703125 74.21875 50.34375 64.25 
Q 56.984375 54.296875 56.984375 36.375 
Q 56.984375 18.5 50.34375 8.53125 
Q 43.703125 -1.421875 31.78125 -1.421875 
z
" id="DejaVuSerif-48"/>
      </defs>
      <g style="fill:#555555;" transform="translate(47.8625 372.930828)scale(0.15 -0.15)">
       <use xlink:href="#DejaVuSerif-50"/>
       <use x="63.623047" xlink:href="#DejaVuSerif-48"/>
      </g>
     </g>
    </g>
    <g id="ytick_2">
     <g id="line2d_6">
      <path clip-path="url(#p08461901f3)" d="M 73.95 285.224 
L 462.766667 285.224 
" style="fill:none;stroke:#ffffff;stroke-linecap:square;stroke-width:0.8;"/>
     </g>
     <g id="line2d_7">
      <g>
       <use style="fill:#555555;stroke:#555555;stroke-width:0.8;" x="73.95" xlink:href="#mcdb0b4299b" y="285.224"/>
      </g>
     </g>
     <g id="text_6">
      <!-- 40 -->
      <defs>
       <path d="M 34.90625 24.703125 
L 34.90625 63.484375 
L 10.015625 24.703125 
z
M 56.390625 0 
L 23.1875 0 
L 23.1875 5.171875 
L 34.90625 5.171875 
L 34.90625 19.484375 
L 3.078125 19.484375 
L 3.078125 24.8125 
L 35.015625 74.21875 
L 44.671875 74.21875 
L 44.671875 24.703125 
L 58.59375 24.703125 
L 58.59375 19.484375 
L 44.671875 19.484375 
L 44.671875 5.171875 
L 56.390625 5.171875 
z
" id="DejaVuSerif-52"/>
      </defs>
      <g style="fill:#555555;" transform="translate(47.8625 290.922828)scale(0.15 -0.15)">
       <use xlink:href="#DejaVuSerif-52"/>
       <use x="63.623047" xlink:href="#DejaVuSerif-48"/>
      </g>
     </g>
    </g>
    <g id="ytick_3">
     <g id="line2d_8">
      <path clip-path="url(#p08461901f3)" d="M 73.95 203.216 
L 462.766667 203.216 
" style="fill:none;stroke:#ffffff;stroke-linecap:square;stroke-width:0.8;"/>
     </g>
     <g id="line2d_9">
      <g>
       <use style="fill:#555555;stroke:#555555;stroke-width:0.8;" x="73.95" xlink:href="#mcdb0b4299b" y="203.216"/>
      </g>
     </g>
     <g id="text_7">
      <!-- 60 -->
      <defs>
       <path d="M 32.71875 3.421875 
Q 39.59375 3.421875 43.296875 8.46875 
Q 47.015625 13.53125 47.015625 23 
Q 47.015625 32.46875 43.296875 37.515625 
Q 39.59375 42.578125 32.71875 42.578125 
Q 25.734375 42.578125 22.0625 37.6875 
Q 18.40625 32.8125 18.40625 23.578125 
Q 18.40625 13.875 22.109375 8.640625 
Q 25.828125 3.421875 32.71875 3.421875 
z
M 16.796875 40.140625 
Q 20.125 43.796875 24.3125 45.59375 
Q 28.515625 47.40625 33.796875 47.40625 
Q 44.671875 47.40625 51 40.859375 
Q 57.328125 34.328125 57.328125 23 
Q 57.328125 11.921875 50.515625 5.25 
Q 43.703125 -1.421875 32.328125 -1.421875 
Q 19.96875 -1.421875 13.328125 7.78125 
Q 6.6875 17 6.6875 34.078125 
Q 6.6875 53.21875 14.546875 63.71875 
Q 22.40625 74.21875 36.71875 74.21875 
Q 40.578125 74.21875 44.828125 73.484375 
Q 49.078125 72.75 53.515625 71.296875 
L 53.515625 59.28125 
L 48 59.28125 
Q 47.40625 64.203125 44.234375 66.796875 
Q 41.0625 69.390625 35.6875 69.390625 
Q 26.21875 69.390625 21.578125 62.203125 
Q 16.9375 55.03125 16.796875 40.140625 
z
" id="DejaVuSerif-54"/>
      </defs>
      <g style="fill:#555555;" transform="translate(47.8625 208.914828)scale(0.15 -0.15)">
       <use xlink:href="#DejaVuSerif-54"/>
       <use x="63.623047" xlink:href="#DejaVuSerif-48"/>
      </g>
     </g>
    </g>
    <g id="ytick_4">
     <g id="line2d_10">
      <path clip-path="url(#p08461901f3)" d="M 73.95 121.208 
L 462.766667 121.208 
" style="fill:none;stroke:#ffffff;stroke-linecap:square;stroke-width:0.8;"/>
     </g>
     <g id="line2d_11">
      <g>
       <use style="fill:#555555;stroke:#555555;stroke-width:0.8;" x="73.95" xlink:href="#mcdb0b4299b" y="121.208"/>
      </g>
     </g>
     <g id="text_8">
      <!-- 80 -->
      <defs>
       <path d="M 46.578125 19.921875 
Q 46.578125 27.734375 42.6875 32.046875 
Q 38.8125 36.375 31.78125 36.375 
Q 24.75 36.375 20.875 32.046875 
Q 17 27.734375 17 19.921875 
Q 17 12.0625 20.875 7.734375 
Q 24.75 3.421875 31.78125 3.421875 
Q 38.8125 3.421875 42.6875 7.734375 
Q 46.578125 12.0625 46.578125 19.921875 
z
M 44.578125 55.328125 
Q 44.578125 61.96875 41.203125 65.671875 
Q 37.84375 69.390625 31.78125 69.390625 
Q 25.78125 69.390625 22.390625 65.671875 
Q 19 61.96875 19 55.328125 
Q 19 48.640625 22.390625 44.921875 
Q 25.78125 41.21875 31.78125 41.21875 
Q 37.84375 41.21875 41.203125 44.921875 
Q 44.578125 48.640625 44.578125 55.328125 
z
M 39.3125 38.8125 
Q 47.609375 37.703125 52.25 32.6875 
Q 56.890625 27.6875 56.890625 19.921875 
Q 56.890625 9.671875 50.390625 4.125 
Q 43.890625 -1.421875 31.78125 -1.421875 
Q 19.734375 -1.421875 13.203125 4.125 
Q 6.6875 9.671875 6.6875 19.921875 
Q 6.6875 27.6875 11.328125 32.6875 
Q 15.96875 37.703125 24.3125 38.8125 
Q 16.9375 40.140625 13 44.40625 
Q 9.078125 48.6875 9.078125 55.328125 
Q 9.078125 64.109375 15.125 69.15625 
Q 21.1875 74.21875 31.78125 74.21875 
Q 42.390625 74.21875 48.4375 69.15625 
Q 54.5 64.109375 54.5 55.328125 
Q 54.5 48.6875 50.5625 44.40625 
Q 46.625 40.140625 39.3125 38.8125 
z
" id="DejaVuSerif-56"/>
      </defs>
      <g style="fill:#555555;" transform="translate(47.8625 126.906828)scale(0.15 -0.15)">
       <use xlink:href="#DejaVuSerif-56"/>
       <use x="63.623047" xlink:href="#DejaVuSerif-48"/>
      </g>
     </g>
    </g>
    <g id="ytick_5">
     <g id="line2d_12">
      <path clip-path="url(#p08461901f3)" d="M 73.95 39.2 
L 462.766667 39.2 
" style="fill:none;stroke:#ffffff;stroke-linecap:square;stroke-width:0.8;"/>
     </g>
     <g id="line2d_13">
      <g>
       <use style="fill:#555555;stroke:#555555;stroke-width:0.8;" x="73.95" xlink:href="#mcdb0b4299b" y="39.2"/>
      </g>
     </g>
     <g id="text_9">
      <!-- 100 -->
      <defs>
       <path d="M 14.203125 0 
L 14.203125 5.171875 
L 26.90625 5.171875 
L 26.90625 65.828125 
L 12.203125 56.296875 
L 12.203125 62.703125 
L 29.984375 74.21875 
L 36.71875 74.21875 
L 36.71875 5.171875 
L 49.421875 5.171875 
L 49.421875 0 
z
" id="DejaVuSerif-49"/>
      </defs>
      <g style="fill:#555555;" transform="translate(38.31875 44.898828)scale(0.15 -0.15)">
       <use xlink:href="#DejaVuSerif-49"/>
       <use x="63.623047" xlink:href="#DejaVuSerif-48"/>
       <use x="127.246094" xlink:href="#DejaVuSerif-48"/>
      </g>
     </g>
    </g>
    <g id="text_10">
     <!-- Accurate Identification (%) -->
     <defs>
      <path d="M 20.015625 26.421875 
L 46.78125 26.421875 
L 33.40625 61.078125 
z
M -0.59375 0 
L -0.59375 5.171875 
L 5.8125 5.171875 
L 31.78125 72.90625 
L 39.984375 72.90625 
L 66.015625 5.171875 
L 73.1875 5.171875 
L 73.1875 0 
L 46.6875 0 
L 46.6875 5.171875 
L 54.78125 5.171875 
L 48.6875 21.1875 
L 18.015625 21.1875 
L 11.921875 5.171875 
L 19.921875 5.171875 
L 19.921875 0 
z
" id="DejaVuSerif-65"/>
      <path d="M 47.796875 52 
L 47.796875 39.015625 
L 42.625 39.015625 
Q 42.390625 42.875 40.484375 44.78125 
Q 38.578125 46.6875 34.90625 46.6875 
Q 28.265625 46.6875 24.71875 42.09375 
Q 21.1875 37.5 21.1875 28.90625 
L 21.1875 5.171875 
L 31.59375 5.171875 
L 31.59375 0 
L 4.109375 0 
L 4.109375 5.171875 
L 12.203125 5.171875 
L 12.203125 46.78125 
L 3.609375 46.78125 
L 3.609375 51.90625 
L 21.1875 51.90625 
L 21.1875 42.671875 
Q 23.828125 48.09375 27.96875 50.703125 
Q 32.125 53.328125 38.09375 53.328125 
Q 40.28125 53.328125 42.703125 52.984375 
Q 45.125 52.640625 47.796875 52 
z
" id="DejaVuSerif-114"/>
      <path id="DejaVuSerif-32"/>
      <path d="M 24.703125 5.171875 
L 33.984375 5.171875 
L 33.984375 0 
L 5.515625 0 
L 5.515625 5.171875 
L 14.796875 5.171875 
L 14.796875 67.671875 
L 5.515625 67.671875 
L 5.515625 72.90625 
L 33.984375 72.90625 
L 33.984375 67.671875 
L 24.703125 67.671875 
z
" id="DejaVuSerif-73"/>
      <path d="M 30.078125 3.421875 
Q 37.3125 3.421875 40.984375 9.125 
Q 44.671875 14.84375 44.671875 25.984375 
Q 44.671875 37.109375 40.984375 42.796875 
Q 37.3125 48.484375 30.078125 48.484375 
Q 22.859375 48.484375 19.171875 42.796875 
Q 15.484375 37.109375 15.484375 25.984375 
Q 15.484375 14.84375 19.1875 9.125 
Q 22.90625 3.421875 30.078125 3.421875 
z
M 30.078125 -1.421875 
Q 18.75 -1.421875 11.859375 6.078125 
Q 4.984375 13.578125 4.984375 25.984375 
Q 4.984375 38.375 11.84375 45.84375 
Q 18.703125 53.328125 30.078125 53.328125 
Q 41.453125 53.328125 48.3125 45.84375 
Q 55.171875 38.375 55.171875 25.984375 
Q 55.171875 13.578125 48.3125 6.078125 
Q 41.453125 -1.421875 30.078125 -1.421875 
z
" id="DejaVuSerif-111"/>
      <path d="M 31.890625 -15.578125 
Q 20.015625 -10.25 13.953125 1.296875 
Q 7.90625 12.84375 7.90625 30.171875 
Q 7.90625 47.5625 13.953125 59.109375 
Q 20.015625 70.65625 31.890625 75.984375 
L 31.890625 71.1875 
Q 24.359375 66.015625 21.09375 56.609375 
Q 17.828125 47.21875 17.828125 30.171875 
Q 17.828125 13.1875 21.09375 3.78125 
Q 24.359375 -5.609375 31.890625 -10.796875 
z
" id="DejaVuSerif-40"/>
      <path d="M 22.40625 69.671875 
Q 18.109375 69.671875 15.6875 65.625 
Q 13.28125 61.578125 13.28125 54.296875 
Q 13.28125 47.125 15.75 43.015625 
Q 18.21875 38.921875 22.40625 38.921875 
Q 26.5625 38.921875 28.96875 43 
Q 31.390625 47.078125 31.390625 54.296875 
Q 31.390625 61.53125 28.96875 65.59375 
Q 26.5625 69.671875 22.40625 69.671875 
z
M 72.703125 33.890625 
Q 68.453125 33.890625 66.03125 29.78125 
Q 63.625 25.6875 63.625 18.40625 
Q 63.625 11.234375 66.0625 7.15625 
Q 68.5 3.078125 72.703125 3.078125 
Q 76.90625 3.078125 79.296875 7.15625 
Q 81.6875 11.234375 81.6875 18.40625 
Q 81.6875 25.640625 79.265625 29.765625 
Q 76.859375 33.890625 72.703125 33.890625 
z
M 72.703125 38.28125 
Q 80.421875 38.28125 84.953125 32.90625 
Q 89.5 27.546875 89.5 18.40625 
Q 89.5 9.28125 84.9375 3.921875 
Q 80.375 -1.421875 72.703125 -1.421875 
Q 64.890625 -1.421875 60.34375 3.921875 
Q 55.8125 9.28125 55.8125 18.40625 
Q 55.8125 27.59375 60.375 32.9375 
Q 64.9375 38.28125 72.703125 38.28125 
z
M 66.609375 74.21875 
L 74.03125 74.21875 
L 28.421875 -1.421875 
L 21 -1.421875 
z
M 22.3125 74.21875 
Q 30.03125 74.21875 34.609375 68.875 
Q 39.203125 63.53125 39.203125 54.390625 
Q 39.203125 45.171875 34.640625 39.84375 
Q 30.078125 34.515625 22.3125 34.515625 
Q 14.546875 34.515625 10.03125 39.859375 
Q 5.515625 45.21875 5.515625 54.390625 
Q 5.515625 63.484375 10.046875 68.84375 
Q 14.59375 74.21875 22.3125 74.21875 
z
" id="DejaVuSerif-37"/>
      <path d="M 7.078125 -15.578125 
L 7.078125 -10.796875 
Q 14.59375 -5.609375 17.890625 3.78125 
Q 21.1875 13.1875 21.1875 30.171875 
Q 21.1875 47.21875 17.890625 56.609375 
Q 14.59375 66.015625 7.078125 71.1875 
L 7.078125 75.984375 
Q 19 70.65625 25.046875 59.109375 
Q 31.109375 47.5625 31.109375 30.171875 
Q 31.109375 12.84375 25.046875 1.296875 
Q 19 -10.25 7.078125 -15.578125 
z
" id="DejaVuSerif-41"/>
     </defs>
     <g style="fill:#555555;" transform="translate(30.575313 333.594687)rotate(-90)scale(0.18 -0.18)">
      <use xlink:href="#DejaVuSerif-65"/>
      <use x="72.216797" xlink:href="#DejaVuSerif-99"/>
      <use x="128.222656" xlink:href="#DejaVuSerif-99"/>
      <use x="184.228516" xlink:href="#DejaVuSerif-117"/>
      <use x="248.632812" xlink:href="#DejaVuSerif-114"/>
      <use x="296.435547" xlink:href="#DejaVuSerif-97"/>
      <use x="356.054688" xlink:href="#DejaVuSerif-116"/>
      <use x="396.240234" xlink:href="#DejaVuSerif-101"/>
      <use x="455.419922" xlink:href="#DejaVuSerif-32"/>
      <use x="487.207031" xlink:href="#DejaVuSerif-73"/>
      <use x="526.708984" xlink:href="#DejaVuSerif-100"/>
      <use x="590.722656" xlink:href="#DejaVuSerif-101"/>
      <use x="649.902344" xlink:href="#DejaVuSerif-110"/>
      <use x="714.306641" xlink:href="#DejaVuSerif-116"/>
      <use x="754.492188" xlink:href="#DejaVuSerif-105"/>
      <use x="786.474609" xlink:href="#DejaVuSerif-102"/>
      <use x="823.486328" xlink:href="#DejaVuSerif-105"/>
      <use x="855.46875" xlink:href="#DejaVuSerif-99"/>
      <use x="911.474609" xlink:href="#DejaVuSerif-97"/>
      <use x="971.09375" xlink:href="#DejaVuSerif-116"/>
      <use x="1011.279297" xlink:href="#DejaVuSerif-105"/>
      <use x="1043.261719" xlink:href="#DejaVuSerif-111"/>
      <use x="1103.466797" xlink:href="#DejaVuSerif-110"/>
      <use x="1167.871094" xlink:href="#DejaVuSerif-32"/>
      <use x="1199.658203" xlink:href="#DejaVuSerif-40"/>
      <use x="1238.671875" xlink:href="#DejaVuSerif-37"/>
      <use x="1333.691406" xlink:href="#DejaVuSerif-41"/>
     </g>
    </g>
   </g>
   <g id="PathCollection_1">
    <defs>
     <path d="M 0 3.383948 
C 0.897434 3.383948 1.758231 3.027394 2.392813 2.392813 
C 3.027394 1.758231 3.383948 0.897434 3.383948 0 
C 3.383948 -0.897434 3.027394 -1.758231 2.392813 -2.392813 
C 1.758231 -3.027394 0.897434 -3.383948 0 -3.383948 
C -0.897434 -3.383948 -1.758231 -3.027394 -2.392813 -2.392813 
C -3.027394 -1.758231 -3.383948 -0.897434 -3.383948 0 
C -3.383948 0.897434 -3.027394 1.758231 -2.392813 2.392813 
C -1.758231 3.027394 -0.897434 3.383948 0 3.383948 
z
" id="C0_0_2c7a2f2d21"/>
    </defs>
    <g clip-path="url(#p08461901f3)">
     <use style="fill:#e24a33;stroke:#e24a33;stroke-width:2.025;" x="129.032361" xlink:href="#C0_0_2c7a2f2d21" y="170.185"/>
    </g>
    <g clip-path="url(#p08461901f3)">
     <use style="fill:#e24a33;stroke:#e24a33;stroke-width:2.025;" x="258.637917" xlink:href="#C0_0_2c7a2f2d21" y="186.131"/>
    </g>
    <g clip-path="url(#p08461901f3)">
     <use style="fill:#e24a33;stroke:#e24a33;stroke-width:2.025;" x="388.243472" xlink:href="#C0_0_2c7a2f2d21" y="229.413"/>
    </g>
   </g>
   <g id="line2d_14">
    <path clip-path="url(#p08461901f3)" d="M 129.032361 170.185 
L 258.637917 186.131 
L 388.243472 229.413 
" style="fill:none;stroke:#e24a33;stroke-dasharray:9.99,4.32;stroke-dashoffset:0;stroke-width:2.7;"/>
   </g>
   <g id="line2d_15">
    <path clip-path="url(#p08461901f3)" d="M 129.032361 194.104 
L 129.032361 147.405 
" style="fill:none;stroke:#e24a33;stroke-linecap:square;stroke-width:2.7;"/>
   </g>
   <g id="line2d_16">
    <path clip-path="url(#p08461901f3)" d="M 258.637917 207.772 
L 258.637917 165.045263 
" style="fill:none;stroke:#e24a33;stroke-linecap:square;stroke-width:2.7;"/>
   </g>
   <g id="line2d_17">
    <path clip-path="url(#p08461901f3)" d="M 388.243472 248.2065 
L 388.243472 211.7585 
" style="fill:none;stroke:#e24a33;stroke-linecap:square;stroke-width:2.7;"/>
   </g>
   <g id="PathCollection_2">
    <defs>
     <path d="M 0 3.383948 
C 0.897434 3.383948 1.758231 3.027394 2.392813 2.392813 
C 3.027394 1.758231 3.383948 0.897434 3.383948 0 
C 3.383948 -0.897434 3.027394 -1.758231 2.392813 -2.392813 
C 1.758231 -3.027394 0.897434 -3.383948 0 -3.383948 
C -0.897434 -3.383948 -1.758231 -3.027394 -2.392813 -2.392813 
C -3.027394 -1.758231 -3.383948 -0.897434 -3.383948 0 
C -3.383948 0.897434 -3.027394 1.758231 -2.392813 2.392813 
C -1.758231 3.027394 -0.897434 3.383948 0 3.383948 
z
" id="C1_0_d77b31c80e"/>
    </defs>
    <g clip-path="url(#p08461901f3)">
     <use style="fill:#348abd;stroke:#348abd;stroke-width:2.025;" x="148.473194" xlink:href="#C1_0_d77b31c80e" y="180.70837"/>
    </g>
    <g clip-path="url(#p08461901f3)">
     <use style="fill:#348abd;stroke:#348abd;stroke-width:2.025;" x="278.07875" xlink:href="#C1_0_d77b31c80e" y="199.093315"/>
    </g>
    <g clip-path="url(#p08461901f3)">
     <use style="fill:#348abd;stroke:#348abd;stroke-width:2.025;" x="407.684306" xlink:href="#C1_0_d77b31c80e" y="226.949293"/>
    </g>
   </g>
   <g id="line2d_18">
    <path clip-path="url(#p08461901f3)" d="M 148.473194 180.70837 
L 278.07875 199.093315 
L 407.684306 226.949293 
" style="fill:none;stroke:#348abd;stroke-dasharray:9.99,4.32;stroke-dashoffset:0;stroke-width:2.7;"/>
   </g>
   <g id="line2d_19">
    <path clip-path="url(#p08461901f3)" d="M 148.473194 202.436033 
L 148.473194 158.980707 
" style="fill:none;stroke:#348abd;stroke-linecap:square;stroke-width:2.7;"/>
   </g>
   <g id="line2d_20">
    <path clip-path="url(#p08461901f3)" d="M 278.07875 218.049308 
L 278.07875 177.351724 
" style="fill:none;stroke:#348abd;stroke-linecap:square;stroke-width:2.7;"/>
   </g>
   <g id="line2d_21">
    <path clip-path="url(#p08461901f3)" d="M 407.684306 246.462406 
L 407.684306 206.33587 
" style="fill:none;stroke:#348abd;stroke-linecap:square;stroke-width:2.7;"/>
   </g>
   <g id="patch_3">
    <path d="M 73.95 380.9 
L 73.95 39.2 
" style="fill:none;stroke:#ffffff;stroke-linecap:square;stroke-linejoin:miter;"/>
   </g>
   <g id="patch_4">
    <path d="M 462.766667 380.9 
L 462.766667 39.2 
" style="fill:none;stroke:#ffffff;stroke-linecap:square;stroke-linejoin:miter;"/>
   </g>
   <g id="patch_5">
    <path d="M 73.95 380.9 
L 462.766667 380.9 
" style="fill:none;stroke:#ffffff;stroke-linecap:square;stroke-linejoin:miter;"/>
   </g>
   <g id="patch_6">
    <path d="M 73.95 39.2 
L 462.766667 39.2 
" style="fill:none;stroke:#ffffff;stroke-linecap:square;stroke-linejoin:miter;"/>
   </g>
   <g id="text_11">
    <!-- Anger -->
    <defs>
     <path d="M 52.484375 46.6875 
L 52.484375 1.125 
Q 52.484375 -10.0625 46.328125 -16.140625 
Q 40.1875 -22.21875 28.8125 -22.21875 
Q 23.6875 -22.21875 19 -21.28125 
Q 14.3125 -20.359375 10.015625 -18.5 
L 10.015625 -7.625 
L 14.703125 -7.625 
Q 15.578125 -12.703125 18.84375 -15.046875 
Q 22.125 -17.390625 28.21875 -17.390625 
Q 36.140625 -17.390625 39.8125 -12.921875 
Q 43.5 -8.453125 43.5 1.125 
L 43.5 8.109375 
Q 40.875 3.21875 36.796875 0.890625 
Q 32.71875 -1.421875 26.703125 -1.421875 
Q 17.140625 -1.421875 11.0625 6.171875 
Q 4.984375 13.765625 4.984375 25.984375 
Q 4.984375 38.1875 11.03125 45.75 
Q 17.09375 53.328125 26.703125 53.328125 
Q 32.71875 53.328125 36.796875 51 
Q 40.875 48.6875 43.5 43.796875 
L 43.5 51.90625 
L 61.078125 51.90625 
L 61.078125 46.6875 
z
M 43.5 28.515625 
Q 43.5 37.84375 39.90625 42.765625 
Q 36.328125 47.703125 29.5 47.703125 
Q 22.5625 47.703125 19.015625 42.234375 
Q 15.484375 36.765625 15.484375 25.984375 
Q 15.484375 15.234375 19.015625 9.71875 
Q 22.5625 4.203125 29.5 4.203125 
Q 36.328125 4.203125 39.90625 9.109375 
Q 43.5 14.015625 43.5 23.390625 
z
" id="DejaVuSerif-103"/>
    </defs>
    <g transform="translate(235.134833 33.2)scale(0.216 -0.216)">
     <use xlink:href="#DejaVuSerif-65"/>
     <use x="72.216797" xlink:href="#DejaVuSerif-110"/>
     <use x="136.621094" xlink:href="#DejaVuSerif-103"/>
     <use x="200.634766" xlink:href="#DejaVuSerif-101"/>
     <use x="259.814453" xlink:href="#DejaVuSerif-114"/>
    </g>
   </g>
   <g id="legend_1">
    <g id="patch_7">
     <path d="M 342.133854 120.624219 
L 452.266667 120.624219 
Q 455.266667 120.624219 455.266667 117.624219 
L 455.266667 49.7 
Q 455.266667 46.7 452.266667 46.7 
L 342.133854 46.7 
Q 339.133854 46.7 339.133854 49.7 
L 339.133854 117.624219 
Q 339.133854 120.624219 342.133854 120.624219 
z
" style="fill:#e5e5e5;opacity:0.8;stroke:#cccccc;stroke-linejoin:miter;stroke-width:0.5;"/>
    </g>
    <g id="text_12">
     <!-- group -->
     <defs>
      <path d="M 20.515625 28.515625 
L 20.515625 23.390625 
Q 20.515625 14.015625 24.09375 9.109375 
Q 27.6875 4.203125 34.515625 4.203125 
Q 41.40625 4.203125 44.9375 9.71875 
Q 48.484375 15.234375 48.484375 25.984375 
Q 48.484375 36.765625 44.9375 42.234375 
Q 41.40625 47.703125 34.515625 47.703125 
Q 27.6875 47.703125 24.09375 42.765625 
Q 20.515625 37.84375 20.515625 28.515625 
z
M 11.53125 46.6875 
L 2.875 46.6875 
L 2.875 51.90625 
L 20.515625 51.90625 
L 20.515625 43.796875 
Q 23.140625 48.6875 27.21875 51 
Q 31.296875 53.328125 37.3125 53.328125 
Q 46.875 53.328125 52.921875 45.75 
Q 58.984375 38.1875 58.984375 25.984375 
Q 58.984375 13.765625 52.921875 6.171875 
Q 46.875 -1.421875 37.3125 -1.421875 
Q 31.296875 -1.421875 27.21875 0.890625 
Q 23.140625 3.21875 20.515625 8.109375 
L 20.515625 -15.578125 
L 29 -15.578125 
L 29 -20.796875 
L 2.875 -20.796875 
L 2.875 -15.578125 
L 11.53125 -15.578125 
z
" id="DejaVuSerif-112"/>
     </defs>
     <g transform="translate(370.160885 66.377188)scale(0.18 -0.18)">
      <use xlink:href="#DejaVuSerif-103"/>
      <use x="64.013672" xlink:href="#DejaVuSerif-114"/>
      <use x="111.816406" xlink:href="#DejaVuSerif-111"/>
      <use x="172.021484" xlink:href="#DejaVuSerif-117"/>
      <use x="236.425781" xlink:href="#DejaVuSerif-112"/>
     </g>
    </g>
    <g id="PathCollection_3">
     <path d="M 360.133854 88.720667 
C 361.031288 88.720667 361.892086 88.364113 362.526667 87.729531 
C 363.161248 87.09495 363.517802 86.234152 363.517802 85.336719 
C 363.517802 84.439285 363.161248 83.578487 362.526667 82.943906 
C 361.892086 82.309325 361.031288 81.952771 360.133854 81.952771 
C 359.236421 81.952771 358.375623 82.309325 357.741041 82.943906 
C 357.10646 83.578487 356.749906 84.439285 356.749906 85.336719 
C 356.749906 86.234152 357.10646 87.09495 357.741041 87.729531 
C 358.375623 88.364113 359.236421 88.720667 360.133854 88.720667 
z
" style="fill:#e24a33;stroke:#e24a33;stroke-width:2.025;"/>
    </g>
    <g id="text_13">
     <!-- Deaf -->
     <g transform="translate(387.133854 89.274219)scale(0.15 -0.15)">
      <use xlink:href="#DejaVuSerif-68"/>
      <use x="80.175781" xlink:href="#DejaVuSerif-101"/>
      <use x="139.355469" xlink:href="#DejaVuSerif-97"/>
      <use x="198.974609" xlink:href="#DejaVuSerif-102"/>
     </g>
    </g>
    <g id="PathCollection_4">
     <path d="M 360.133854 110.737854 
C 361.031288 110.737854 361.892086 110.3813 362.526667 109.746719 
C 363.161248 109.112138 363.517802 108.25134 363.517802 107.353906 
C 363.517802 106.456473 363.161248 105.595675 362.526667 104.961094 
C 361.892086 104.326512 361.031288 103.969958 360.133854 103.969958 
C 359.236421 103.969958 358.375623 104.326512 357.741041 104.961094 
C 357.10646 105.595675 356.749906 106.456473 356.749906 107.353906 
C 356.749906 108.25134 357.10646 109.112138 357.741041 109.746719 
C 358.375623 110.3813 359.236421 110.737854 360.133854 110.737854 
z
" style="fill:#348abd;stroke:#348abd;stroke-width:2.025;"/>
    </g>
    <g id="text_14">
     <!-- Hearing -->
     <defs>
      <path d="M 5.515625 0 
L 5.515625 5.171875 
L 14.796875 5.171875 
L 14.796875 67.671875 
L 5.515625 67.671875 
L 5.515625 72.90625 
L 33.984375 72.90625 
L 33.984375 67.671875 
L 24.703125 67.671875 
L 24.703125 42.484375 
L 62.5 42.484375 
L 62.5 67.671875 
L 53.21875 67.671875 
L 53.21875 72.90625 
L 81.6875 72.90625 
L 81.6875 67.671875 
L 72.40625 67.671875 
L 72.40625 5.171875 
L 81.6875 5.171875 
L 81.6875 0 
L 53.21875 0 
L 53.21875 5.171875 
L 62.5 5.171875 
L 62.5 36.53125 
L 24.703125 36.53125 
L 24.703125 5.171875 
L 33.984375 5.171875 
L 33.984375 0 
z
" id="DejaVuSerif-72"/>
     </defs>
     <g transform="translate(387.133854 111.291406)scale(0.15 -0.15)">
      <use xlink:href="#DejaVuSerif-72"/>
      <use x="87.207031" xlink:href="#DejaVuSerif-101"/>
      <use x="146.386719" xlink:href="#DejaVuSerif-97"/>
      <use x="206.005859" xlink:href="#DejaVuSerif-114"/>
      <use x="253.808594" xlink:href="#DejaVuSerif-105"/>
      <use x="285.791016" xlink:href="#DejaVuSerif-110"/>
      <use x="350.195312" xlink:href="#DejaVuSerif-103"/>
     </g>
    </g>
   </g>
  </g>
  <g id="axes_2">
   <g id="patch_8">
    <path d="M 482.466667 380.9 
L 871.283333 380.9 
L 871.283333 39.2 
L 482.466667 39.2 
z
" style="fill:#e5e5e5;"/>
   </g>
   <g id="matplotlib.axis_3">
    <g id="xtick_4">
     <g id="line2d_22">
      <g>
       <use style="fill:#555555;stroke:#555555;stroke-width:0.8;" x="547.269444" xlink:href="#m9c8e58d2cf" y="380.9"/>
      </g>
     </g>
     <g id="text_15">
      <!-- Dynamic -->
      <g style="fill:#555555;" transform="translate(514.005773 399.084375)scale(0.15 -0.15)">
       <use xlink:href="#DejaVuSerif-68"/>
       <use x="80.175781" xlink:href="#DejaVuSerif-121"/>
       <use x="136.669922" xlink:href="#DejaVuSerif-110"/>
       <use x="201.074219" xlink:href="#DejaVuSerif-97"/>
       <use x="260.693359" xlink:href="#DejaVuSerif-109"/>
       <use x="355.517578" xlink:href="#DejaVuSerif-105"/>
       <use x="387.5" xlink:href="#DejaVuSerif-99"/>
      </g>
     </g>
    </g>
    <g id="xtick_5">
     <g id="line2d_23">
      <g>
       <use style="fill:#555555;stroke:#555555;stroke-width:0.8;" x="676.875" xlink:href="#m9c8e58d2cf" y="380.9"/>
      </g>
     </g>
     <g id="text_16">
      <!-- Static -->
      <g style="fill:#555555;" transform="translate(654.638672 399.297656)scale(0.15 -0.15)">
       <use xlink:href="#DejaVuSerif-83"/>
       <use x="68.505859" xlink:href="#DejaVuSerif-116"/>
       <use x="108.691406" xlink:href="#DejaVuSerif-97"/>
       <use x="168.310547" xlink:href="#DejaVuSerif-116"/>
       <use x="208.496094" xlink:href="#DejaVuSerif-105"/>
       <use x="240.478516" xlink:href="#DejaVuSerif-99"/>
      </g>
     </g>
    </g>
    <g id="xtick_6">
     <g id="line2d_24">
      <g>
       <use style="fill:#555555;stroke:#555555;stroke-width:0.8;" x="806.480556" xlink:href="#m9c8e58d2cf" y="380.9"/>
      </g>
     </g>
     <g id="text_17">
      <!-- Shuffled -->
      <g style="fill:#555555;" transform="translate(774.490712 399.297656)scale(0.15 -0.15)">
       <use xlink:href="#DejaVuSerif-83"/>
       <use x="68.505859" xlink:href="#DejaVuSerif-104"/>
       <use x="132.910156" xlink:href="#DejaVuSerif-117"/>
       <use x="197.314453" xlink:href="#DejaVuSerif-102"/>
       <use x="234.326172" xlink:href="#DejaVuSerif-102"/>
       <use x="271.337891" xlink:href="#DejaVuSerif-108"/>
       <use x="303.320312" xlink:href="#DejaVuSerif-101"/>
       <use x="362.5" xlink:href="#DejaVuSerif-100"/>
      </g>
     </g>
    </g>
    <g id="text_18">
     <!-- Task -->
     <g style="fill:#555555;" transform="translate(655.44375 420.094375)scale(0.18 -0.18)">
      <use xlink:href="#DejaVuSerif-84"/>
      <use x="66.589844" xlink:href="#DejaVuSerif-97"/>
      <use x="126.208984" xlink:href="#DejaVuSerif-115"/>
      <use x="177.527344" xlink:href="#DejaVuSerif-107"/>
     </g>
    </g>
   </g>
   <g id="matplotlib.axis_4">
    <g id="ytick_6">
     <g id="line2d_25">
      <path clip-path="url(#p207361b5ae)" d="M 482.466667 367.232 
L 871.283333 367.232 
" style="fill:none;stroke:#ffffff;stroke-linecap:square;stroke-width:0.8;"/>
     </g>
     <g id="line2d_26">
      <g>
       <use style="fill:#555555;stroke:#555555;stroke-width:0.8;" x="482.466667" xlink:href="#mcdb0b4299b" y="367.232"/>
      </g>
     </g>
    </g>
    <g id="ytick_7">
     <g id="line2d_27">
      <path clip-path="url(#p207361b5ae)" d="M 482.466667 285.224 
L 871.283333 285.224 
" style="fill:none;stroke:#ffffff;stroke-linecap:square;stroke-width:0.8;"/>
     </g>
     <g id="line2d_28">
      <g>
       <use style="fill:#555555;stroke:#555555;stroke-width:0.8;" x="482.466667" xlink:href="#mcdb0b4299b" y="285.224"/>
      </g>
     </g>
    </g>
    <g id="ytick_8">
     <g id="line2d_29">
      <path clip-path="url(#p207361b5ae)" d="M 482.466667 203.216 
L 871.283333 203.216 
" style="fill:none;stroke:#ffffff;stroke-linecap:square;stroke-width:0.8;"/>
     </g>
     <g id="line2d_30">
      <g>
       <use style="fill:#555555;stroke:#555555;stroke-width:0.8;" x="482.466667" xlink:href="#mcdb0b4299b" y="203.216"/>
      </g>
     </g>
    </g>
    <g id="ytick_9">
     <g id="line2d_31">
      <path clip-path="url(#p207361b5ae)" d="M 482.466667 121.208 
L 871.283333 121.208 
" style="fill:none;stroke:#ffffff;stroke-linecap:square;stroke-width:0.8;"/>
     </g>
     <g id="line2d_32">
      <g>
       <use style="fill:#555555;stroke:#555555;stroke-width:0.8;" x="482.466667" xlink:href="#mcdb0b4299b" y="121.208"/>
      </g>
     </g>
    </g>
    <g id="ytick_10">
     <g id="line2d_33">
      <path clip-path="url(#p207361b5ae)" d="M 482.466667 39.2 
L 871.283333 39.2 
" style="fill:none;stroke:#ffffff;stroke-linecap:square;stroke-width:0.8;"/>
     </g>
     <g id="line2d_34">
      <g>
       <use style="fill:#555555;stroke:#555555;stroke-width:0.8;" x="482.466667" xlink:href="#mcdb0b4299b" y="39.2"/>
      </g>
     </g>
    </g>
   </g>
   <g id="PathCollection_5">
    <defs>
     <path d="M 0 3.383948 
C 0.897434 3.383948 1.758231 3.027394 2.392813 2.392813 
C 3.027394 1.758231 3.383948 0.897434 3.383948 0 
C 3.383948 -0.897434 3.027394 -1.758231 2.392813 -2.392813 
C 1.758231 -3.027394 0.897434 -3.383948 0 -3.383948 
C -0.897434 -3.383948 -1.758231 -3.027394 -2.392813 -2.392813 
C -3.027394 -1.758231 -3.383948 -0.897434 -3.383948 0 
C -3.383948 0.897434 -3.027394 1.758231 -2.392813 2.392813 
C -1.758231 3.027394 -0.897434 3.383948 0 3.383948 
z
" id="C2_0_a08b481df0"/>
    </defs>
    <g clip-path="url(#p207361b5ae)">
     <use style="fill:#e24a33;stroke:#e24a33;stroke-width:2.025;" x="537.549028" xlink:href="#C2_0_a08b481df0" y="189.548"/>
    </g>
    <g clip-path="url(#p207361b5ae)">
     <use style="fill:#e24a33;stroke:#e24a33;stroke-width:2.025;" x="667.154583" xlink:href="#C2_0_a08b481df0" y="194.104"/>
    </g>
    <g clip-path="url(#p207361b5ae)">
     <use style="fill:#e24a33;stroke:#e24a33;stroke-width:2.025;" x="796.760139" xlink:href="#C2_0_a08b481df0" y="274.4035"/>
    </g>
   </g>
   <g id="line2d_35">
    <path clip-path="url(#p207361b5ae)" d="M 537.549028 189.548 
L 667.154583 194.104 
L 796.760139 274.4035 
" style="fill:none;stroke:#e24a33;stroke-dasharray:9.99,4.32;stroke-dashoffset:0;stroke-width:2.7;"/>
   </g>
   <g id="line2d_36">
    <path clip-path="url(#p207361b5ae)" d="M 537.549028 215.745 
L 537.549028 167.3375 
" style="fill:none;stroke:#e24a33;stroke-linecap:square;stroke-width:2.7;"/>
   </g>
   <g id="line2d_37">
    <path clip-path="url(#p207361b5ae)" d="M 667.154583 218.023 
L 667.154583 171.324 
" style="fill:none;stroke:#e24a33;stroke-linecap:square;stroke-width:2.7;"/>
   </g>
   <g id="line2d_38">
    <path clip-path="url(#p207361b5ae)" d="M 796.760139 296.058738 
L 796.760139 253.887262 
" style="fill:none;stroke:#e24a33;stroke-linecap:square;stroke-width:2.7;"/>
   </g>
   <g id="PathCollection_6">
    <defs>
     <path d="M 0 3.383948 
C 0.897434 3.383948 1.758231 3.027394 2.392813 2.392813 
C 3.027394 1.758231 3.383948 0.897434 3.383948 0 
C 3.383948 -0.897434 3.027394 -1.758231 2.392813 -2.392813 
C 1.758231 -3.027394 0.897434 -3.383948 0 -3.383948 
C -0.897434 -3.383948 -1.758231 -3.027394 -2.392813 -2.392813 
C -3.027394 -1.758231 -3.383948 -0.897434 -3.383948 0 
C -3.383948 0.897434 -3.027394 1.758231 -2.392813 2.392813 
C -1.758231 3.027394 -0.897434 3.383948 0 3.383948 
z
" id="C3_0_5a918dfa2b"/>
    </defs>
    <g clip-path="url(#p207361b5ae)">
     <use style="fill:#348abd;stroke:#348abd;stroke-width:2.025;" x="556.989861" xlink:href="#C3_0_5a918dfa2b" y="167.89462"/>
    </g>
    <g clip-path="url(#p207361b5ae)">
     <use style="fill:#348abd;stroke:#348abd;stroke-width:2.025;" x="686.595417" xlink:href="#C3_0_5a918dfa2b" y="175.137174"/>
    </g>
    <g clip-path="url(#p207361b5ae)">
     <use style="fill:#348abd;stroke:#348abd;stroke-width:2.025;" x="816.200972" xlink:href="#C3_0_5a918dfa2b" y="246.448478"/>
    </g>
   </g>
   <g id="line2d_39">
    <path clip-path="url(#p207361b5ae)" d="M 556.989861 167.89462 
L 686.595417 175.137174 
L 816.200972 246.448478 
" style="fill:none;stroke:#348abd;stroke-dasharray:9.99,4.32;stroke-dashoffset:0;stroke-width:2.7;"/>
   </g>
   <g id="line2d_40">
    <path clip-path="url(#p207361b5ae)" d="M 556.989861 185.736374 
L 556.989861 150.066793 
" style="fill:none;stroke:#348abd;stroke-linecap:square;stroke-width:2.7;"/>
   </g>
   <g id="line2d_41">
    <path clip-path="url(#p207361b5ae)" d="M 686.595417 192.40788 
L 686.595417 155.624061 
" style="fill:none;stroke:#348abd;stroke-linecap:square;stroke-width:2.7;"/>
   </g>
   <g id="line2d_42">
    <path clip-path="url(#p207361b5ae)" d="M 816.200972 265.947663 
L 816.200972 226.378246 
" style="fill:none;stroke:#348abd;stroke-linecap:square;stroke-width:2.7;"/>
   </g>
   <g id="patch_9">
    <path d="M 482.466667 380.9 
L 482.466667 39.2 
" style="fill:none;stroke:#ffffff;stroke-linecap:square;stroke-linejoin:miter;"/>
   </g>
   <g id="patch_10">
    <path d="M 871.283333 380.9 
L 871.283333 39.2 
" style="fill:none;stroke:#ffffff;stroke-linecap:square;stroke-linejoin:miter;"/>
   </g>
   <g id="patch_11">
    <path d="M 482.466667 380.9 
L 871.283333 380.9 
" style="fill:none;stroke:#ffffff;stroke-linecap:square;stroke-linejoin:miter;"/>
   </g>
   <g id="patch_12">
    <path d="M 482.466667 39.2 
L 871.283333 39.2 
" style="fill:none;stroke:#ffffff;stroke-linecap:square;stroke-linejoin:miter;"/>
   </g>
   <g id="text_19">
    <!-- Disgust -->
    <g transform="translate(635.468813 33.2)scale(0.216 -0.216)">
     <use xlink:href="#DejaVuSerif-68"/>
     <use x="80.175781" xlink:href="#DejaVuSerif-105"/>
     <use x="112.158203" xlink:href="#DejaVuSerif-115"/>
     <use x="163.476562" xlink:href="#DejaVuSerif-103"/>
     <use x="227.490234" xlink:href="#DejaVuSerif-117"/>
     <use x="291.894531" xlink:href="#DejaVuSerif-115"/>
     <use x="343.212891" xlink:href="#DejaVuSerif-116"/>
    </g>
   </g>
  </g>
  <g id="axes_3">
   <g id="patch_13">
    <path d="M 890.983333 380.9 
L 1279.8 380.9 
L 1279.8 39.2 
L 890.983333 39.2 
z
" style="fill:#e5e5e5;"/>
   </g>
   <g id="matplotlib.axis_5">
    <g id="xtick_7">
     <g id="line2d_43">
      <g>
       <use style="fill:#555555;stroke:#555555;stroke-width:0.8;" x="955.786111" xlink:href="#m9c8e58d2cf" y="380.9"/>
      </g>
     </g>
     <g id="text_20">
      <!-- Dynamic -->
      <g style="fill:#555555;" transform="translate(922.522439 399.084375)scale(0.15 -0.15)">
       <use xlink:href="#DejaVuSerif-68"/>
       <use x="80.175781" xlink:href="#DejaVuSerif-121"/>
       <use x="136.669922" xlink:href="#DejaVuSerif-110"/>
       <use x="201.074219" xlink:href="#DejaVuSerif-97"/>
       <use x="260.693359" xlink:href="#DejaVuSerif-109"/>
       <use x="355.517578" xlink:href="#DejaVuSerif-105"/>
       <use x="387.5" xlink:href="#DejaVuSerif-99"/>
      </g>
     </g>
    </g>
    <g id="xtick_8">
     <g id="line2d_44">
      <g>
       <use style="fill:#555555;stroke:#555555;stroke-width:0.8;" x="1085.391667" xlink:href="#m9c8e58d2cf" y="380.9"/>
      </g>
     </g>
     <g id="text_21">
      <!-- Static -->
      <g style="fill:#555555;" transform="translate(1063.155339 399.297656)scale(0.15 -0.15)">
       <use xlink:href="#DejaVuSerif-83"/>
       <use x="68.505859" xlink:href="#DejaVuSerif-116"/>
       <use x="108.691406" xlink:href="#DejaVuSerif-97"/>
       <use x="168.310547" xlink:href="#DejaVuSerif-116"/>
       <use x="208.496094" xlink:href="#DejaVuSerif-105"/>
       <use x="240.478516" xlink:href="#DejaVuSerif-99"/>
      </g>
     </g>
    </g>
    <g id="xtick_9">
     <g id="line2d_45">
      <g>
       <use style="fill:#555555;stroke:#555555;stroke-width:0.8;" x="1214.997222" xlink:href="#m9c8e58d2cf" y="380.9"/>
      </g>
     </g>
     <g id="text_22">
      <!-- Shuffled -->
      <g style="fill:#555555;" transform="translate(1183.007378 399.297656)scale(0.15 -0.15)">
       <use xlink:href="#DejaVuSerif-83"/>
       <use x="68.505859" xlink:href="#DejaVuSerif-104"/>
       <use x="132.910156" xlink:href="#DejaVuSerif-117"/>
       <use x="197.314453" xlink:href="#DejaVuSerif-102"/>
       <use x="234.326172" xlink:href="#DejaVuSerif-102"/>
       <use x="271.337891" xlink:href="#DejaVuSerif-108"/>
       <use x="303.320312" xlink:href="#DejaVuSerif-101"/>
       <use x="362.5" xlink:href="#DejaVuSerif-100"/>
      </g>
     </g>
    </g>
    <g id="text_23">
     <!-- Task -->
     <g style="fill:#555555;" transform="translate(1063.960417 420.094375)scale(0.18 -0.18)">
      <use xlink:href="#DejaVuSerif-84"/>
      <use x="66.589844" xlink:href="#DejaVuSerif-97"/>
      <use x="126.208984" xlink:href="#DejaVuSerif-115"/>
      <use x="177.527344" xlink:href="#DejaVuSerif-107"/>
     </g>
    </g>
   </g>
   <g id="matplotlib.axis_6">
    <g id="ytick_11">
     <g id="line2d_46">
      <path clip-path="url(#pbe2c9e19ee)" d="M 890.983333 367.232 
L 1279.8 367.232 
" style="fill:none;stroke:#ffffff;stroke-linecap:square;stroke-width:0.8;"/>
     </g>
     <g id="line2d_47">
      <g>
       <use style="fill:#555555;stroke:#555555;stroke-width:0.8;" x="890.983333" xlink:href="#mcdb0b4299b" y="367.232"/>
      </g>
     </g>
    </g>
    <g id="ytick_12">
     <g id="line2d_48">
      <path clip-path="url(#pbe2c9e19ee)" d="M 890.983333 285.224 
L 1279.8 285.224 
" style="fill:none;stroke:#ffffff;stroke-linecap:square;stroke-width:0.8;"/>
     </g>
     <g id="line2d_49">
      <g>
       <use style="fill:#555555;stroke:#555555;stroke-width:0.8;" x="890.983333" xlink:href="#mcdb0b4299b" y="285.224"/>
      </g>
     </g>
    </g>
    <g id="ytick_13">
     <g id="line2d_50">
      <path clip-path="url(#pbe2c9e19ee)" d="M 890.983333 203.216 
L 1279.8 203.216 
" style="fill:none;stroke:#ffffff;stroke-linecap:square;stroke-width:0.8;"/>
     </g>
     <g id="line2d_51">
      <g>
       <use style="fill:#555555;stroke:#555555;stroke-width:0.8;" x="890.983333" xlink:href="#mcdb0b4299b" y="203.216"/>
      </g>
     </g>
    </g>
    <g id="ytick_14">
     <g id="line2d_52">
      <path clip-path="url(#pbe2c9e19ee)" d="M 890.983333 121.208 
L 1279.8 121.208 
" style="fill:none;stroke:#ffffff;stroke-linecap:square;stroke-width:0.8;"/>
     </g>
     <g id="line2d_53">
      <g>
       <use style="fill:#555555;stroke:#555555;stroke-width:0.8;" x="890.983333" xlink:href="#mcdb0b4299b" y="121.208"/>
      </g>
     </g>
    </g>
    <g id="ytick_15">
     <g id="line2d_54">
      <path clip-path="url(#pbe2c9e19ee)" d="M 890.983333 39.2 
L 1279.8 39.2 
" style="fill:none;stroke:#ffffff;stroke-linecap:square;stroke-width:0.8;"/>
     </g>
     <g id="line2d_55">
      <g>
       <use style="fill:#555555;stroke:#555555;stroke-width:0.8;" x="890.983333" xlink:href="#mcdb0b4299b" y="39.2"/>
      </g>
     </g>
    </g>
   </g>
   <g id="PathCollection_7">
    <defs>
     <path d="M 0 3.383948 
C 0.897434 3.383948 1.758231 3.027394 2.392813 2.392813 
C 3.027394 1.758231 3.383948 0.897434 3.383948 0 
C 3.383948 -0.897434 3.027394 -1.758231 2.392813 -2.392813 
C 1.758231 -3.027394 0.897434 -3.383948 0 -3.383948 
C -0.897434 -3.383948 -1.758231 -3.027394 -2.392813 -2.392813 
C -3.027394 -1.758231 -3.383948 -0.897434 -3.383948 0 
C -3.383948 0.897434 -3.027394 1.758231 -2.392813 2.392813 
C -1.758231 3.027394 -0.897434 3.383948 0 3.383948 
z
" id="C4_0_d35c4105b1"/>
    </defs>
    <g clip-path="url(#pbe2c9e19ee)">
     <use style="fill:#e24a33;stroke:#e24a33;stroke-width:2.025;" x="946.065694" xlink:href="#C4_0_d35c4105b1" y="297.1835"/>
    </g>
    <g clip-path="url(#pbe2c9e19ee)">
     <use style="fill:#e24a33;stroke:#e24a33;stroke-width:2.025;" x="1075.67125" xlink:href="#C4_0_d35c4105b1" y="294.336"/>
    </g>
    <g clip-path="url(#pbe2c9e19ee)">
     <use style="fill:#e24a33;stroke:#e24a33;stroke-width:2.025;" x="1205.276806" xlink:href="#C4_0_d35c4105b1" y="273.834"/>
    </g>
   </g>
   <g id="line2d_56">
    <path clip-path="url(#pbe2c9e19ee)" d="M 946.065694 297.1835 
L 1075.67125 294.336 
L 1205.276806 273.834 
" style="fill:none;stroke:#e24a33;stroke-dasharray:9.99,4.32;stroke-dashoffset:0;stroke-width:2.7;"/>
   </g>
   <g id="line2d_57">
    <path clip-path="url(#pbe2c9e19ee)" d="M 946.065694 315.4075 
L 946.065694 278.39 
" style="fill:none;stroke:#e24a33;stroke-linecap:square;stroke-width:2.7;"/>
   </g>
   <g id="line2d_58">
    <path clip-path="url(#pbe2c9e19ee)" d="M 1075.67125 310.282 
L 1075.67125 277.806263 
" style="fill:none;stroke:#e24a33;stroke-linecap:square;stroke-width:2.7;"/>
   </g>
   <g id="line2d_59">
    <path clip-path="url(#pbe2c9e19ee)" d="M 1205.276806 289.224738 
L 1205.276806 256.734762 
" style="fill:none;stroke:#e24a33;stroke-linecap:square;stroke-width:2.7;"/>
   </g>
   <g id="PathCollection_8">
    <defs>
     <path d="M 0 3.383948 
C 0.897434 3.383948 1.758231 3.027394 2.392813 2.392813 
C 3.027394 1.758231 3.383948 0.897434 3.383948 0 
C 3.383948 -0.897434 3.027394 -1.758231 2.392813 -2.392813 
C 1.758231 -3.027394 0.897434 -3.383948 0 -3.383948 
C -0.897434 -3.383948 -1.758231 -3.027394 -2.392813 -2.392813 
C -3.027394 -1.758231 -3.383948 -0.897434 -3.383948 0 
C -3.383948 0.897434 -3.027394 1.758231 -2.392813 2.392813 
C -1.758231 3.027394 -0.897434 3.383948 0 3.383948 
z
" id="C5_0_36f3552318"/>
    </defs>
    <g clip-path="url(#pbe2c9e19ee)">
     <use style="fill:#348abd;stroke:#348abd;stroke-width:2.025;" x="965.506528" xlink:href="#C5_0_36f3552318" y="301.046196"/>
    </g>
    <g clip-path="url(#pbe2c9e19ee)">
     <use style="fill:#348abd;stroke:#348abd;stroke-width:2.025;" x="1095.112083" xlink:href="#C5_0_36f3552318" y="299.374837"/>
    </g>
    <g clip-path="url(#pbe2c9e19ee)">
     <use style="fill:#348abd;stroke:#348abd;stroke-width:2.025;" x="1224.717639" xlink:href="#C5_0_36f3552318" y="270.40462"/>
    </g>
   </g>
   <g id="line2d_60">
    <path clip-path="url(#pbe2c9e19ee)" d="M 965.506528 301.046196 
L 1095.112083 299.374837 
L 1224.717639 270.40462 
" style="fill:none;stroke:#348abd;stroke-dasharray:9.99,4.32;stroke-dashoffset:0;stroke-width:2.7;"/>
   </g>
   <g id="line2d_61">
    <path clip-path="url(#pbe2c9e19ee)" d="M 965.506528 320.54538 
L 965.506528 280.975963 
" style="fill:none;stroke:#348abd;stroke-linecap:square;stroke-width:2.7;"/>
   </g>
   <g id="line2d_62">
    <path clip-path="url(#pbe2c9e19ee)" d="M 1095.112083 319.445069 
L 1095.112083 279.304605 
" style="fill:none;stroke:#348abd;stroke-linecap:square;stroke-width:2.7;"/>
   </g>
   <g id="line2d_63">
    <path clip-path="url(#pbe2c9e19ee)" d="M 1224.717639 291.018043 
L 1224.717639 250.891507 
" style="fill:none;stroke:#348abd;stroke-linecap:square;stroke-width:2.7;"/>
   </g>
   <g id="patch_14">
    <path d="M 890.983333 380.9 
L 890.983333 39.2 
" style="fill:none;stroke:#ffffff;stroke-linecap:square;stroke-linejoin:miter;"/>
   </g>
   <g id="patch_15">
    <path d="M 1279.8 380.9 
L 1279.8 39.2 
" style="fill:none;stroke:#ffffff;stroke-linecap:square;stroke-linejoin:miter;"/>
   </g>
   <g id="patch_16">
    <path d="M 890.983333 380.9 
L 1279.8 380.9 
" style="fill:none;stroke:#ffffff;stroke-linecap:square;stroke-linejoin:miter;"/>
   </g>
   <g id="patch_17">
    <path d="M 890.983333 39.2 
L 1279.8 39.2 
" style="fill:none;stroke:#ffffff;stroke-linecap:square;stroke-linejoin:miter;"/>
   </g>
   <g id="text_24">
    <!-- Fear -->
    <defs>
     <path d="M 5.515625 0 
L 5.515625 5.171875 
L 14.796875 5.171875 
L 14.796875 67.671875 
L 5.515625 67.671875 
L 5.515625 72.90625 
L 65.1875 72.90625 
L 65.1875 56.6875 
L 59.1875 56.6875 
L 59.1875 66.890625 
L 24.703125 66.890625 
L 24.703125 42.484375 
L 49.609375 42.484375 
L 49.609375 51.609375 
L 55.609375 51.609375 
L 55.609375 27.390625 
L 49.609375 27.390625 
L 49.609375 36.53125 
L 24.703125 36.53125 
L 24.703125 5.171875 
L 36.375 5.171875 
L 36.375 0 
z
" id="DejaVuSerif-70"/>
    </defs>
    <g transform="translate(1059.912104 33.2)scale(0.216 -0.216)">
     <use xlink:href="#DejaVuSerif-70"/>
     <use x="69.306641" xlink:href="#DejaVuSerif-101"/>
     <use x="128.486328" xlink:href="#DejaVuSerif-97"/>
     <use x="188.105469" xlink:href="#DejaVuSerif-114"/>
    </g>
   </g>
  </g>
  <g id="axes_4">
   <g id="patch_18">
    <path d="M 73.95 804.8 
L 462.766667 804.8 
L 462.766667 463.1 
L 73.95 463.1 
z
" style="fill:#e5e5e5;"/>
   </g>
   <g id="matplotlib.axis_7">
    <g id="xtick_10">
     <g id="line2d_64">
      <g>
       <use style="fill:#555555;stroke:#555555;stroke-width:0.8;" x="138.752778" xlink:href="#m9c8e58d2cf" y="804.8"/>
      </g>
     </g>
     <g id="text_25">
      <!-- Dynamic -->
      <g style="fill:#555555;" transform="translate(105.489106 822.984375)scale(0.15 -0.15)">
       <use xlink:href="#DejaVuSerif-68"/>
       <use x="80.175781" xlink:href="#DejaVuSerif-121"/>
       <use x="136.669922" xlink:href="#DejaVuSerif-110"/>
       <use x="201.074219" xlink:href="#DejaVuSerif-97"/>
       <use x="260.693359" xlink:href="#DejaVuSerif-109"/>
       <use x="355.517578" xlink:href="#DejaVuSerif-105"/>
       <use x="387.5" xlink:href="#DejaVuSerif-99"/>
      </g>
     </g>
    </g>
    <g id="xtick_11">
     <g id="line2d_65">
      <g>
       <use style="fill:#555555;stroke:#555555;stroke-width:0.8;" x="268.358333" xlink:href="#m9c8e58d2cf" y="804.8"/>
      </g>
     </g>
     <g id="text_26">
      <!-- Static -->
      <g style="fill:#555555;" transform="translate(246.122005 823.197656)scale(0.15 -0.15)">
       <use xlink:href="#DejaVuSerif-83"/>
       <use x="68.505859" xlink:href="#DejaVuSerif-116"/>
       <use x="108.691406" xlink:href="#DejaVuSerif-97"/>
       <use x="168.310547" xlink:href="#DejaVuSerif-116"/>
       <use x="208.496094" xlink:href="#DejaVuSerif-105"/>
       <use x="240.478516" xlink:href="#DejaVuSerif-99"/>
      </g>
     </g>
    </g>
    <g id="xtick_12">
     <g id="line2d_66">
      <g>
       <use style="fill:#555555;stroke:#555555;stroke-width:0.8;" x="397.963889" xlink:href="#m9c8e58d2cf" y="804.8"/>
      </g>
     </g>
     <g id="text_27">
      <!-- Shuffled -->
      <g style="fill:#555555;" transform="translate(365.974045 823.197656)scale(0.15 -0.15)">
       <use xlink:href="#DejaVuSerif-83"/>
       <use x="68.505859" xlink:href="#DejaVuSerif-104"/>
       <use x="132.910156" xlink:href="#DejaVuSerif-117"/>
       <use x="197.314453" xlink:href="#DejaVuSerif-102"/>
       <use x="234.326172" xlink:href="#DejaVuSerif-102"/>
       <use x="271.337891" xlink:href="#DejaVuSerif-108"/>
       <use x="303.320312" xlink:href="#DejaVuSerif-101"/>
       <use x="362.5" xlink:href="#DejaVuSerif-100"/>
      </g>
     </g>
    </g>
    <g id="text_28">
     <!-- Task -->
     <g style="fill:#555555;" transform="translate(246.927083 843.994375)scale(0.18 -0.18)">
      <use xlink:href="#DejaVuSerif-84"/>
      <use x="66.589844" xlink:href="#DejaVuSerif-97"/>
      <use x="126.208984" xlink:href="#DejaVuSerif-115"/>
      <use x="177.527344" xlink:href="#DejaVuSerif-107"/>
     </g>
    </g>
   </g>
   <g id="matplotlib.axis_8">
    <g id="ytick_16">
     <g id="line2d_67">
      <path clip-path="url(#pbb400496ad)" d="M 73.95 791.132 
L 462.766667 791.132 
" style="fill:none;stroke:#ffffff;stroke-linecap:square;stroke-width:0.8;"/>
     </g>
     <g id="line2d_68">
      <g>
       <use style="fill:#555555;stroke:#555555;stroke-width:0.8;" x="73.95" xlink:href="#mcdb0b4299b" y="791.132"/>
      </g>
     </g>
     <g id="text_29">
      <!-- 20 -->
      <g style="fill:#555555;" transform="translate(47.8625 796.830828)scale(0.15 -0.15)">
       <use xlink:href="#DejaVuSerif-50"/>
       <use x="63.623047" xlink:href="#DejaVuSerif-48"/>
      </g>
     </g>
    </g>
    <g id="ytick_17">
     <g id="line2d_69">
      <path clip-path="url(#pbb400496ad)" d="M 73.95 709.124 
L 462.766667 709.124 
" style="fill:none;stroke:#ffffff;stroke-linecap:square;stroke-width:0.8;"/>
     </g>
     <g id="line2d_70">
      <g>
       <use style="fill:#555555;stroke:#555555;stroke-width:0.8;" x="73.95" xlink:href="#mcdb0b4299b" y="709.124"/>
      </g>
     </g>
     <g id="text_30">
      <!-- 40 -->
      <g style="fill:#555555;" transform="translate(47.8625 714.822828)scale(0.15 -0.15)">
       <use xlink:href="#DejaVuSerif-52"/>
       <use x="63.623047" xlink:href="#DejaVuSerif-48"/>
      </g>
     </g>
    </g>
    <g id="ytick_18">
     <g id="line2d_71">
      <path clip-path="url(#pbb400496ad)" d="M 73.95 627.116 
L 462.766667 627.116 
" style="fill:none;stroke:#ffffff;stroke-linecap:square;stroke-width:0.8;"/>
     </g>
     <g id="line2d_72">
      <g>
       <use style="fill:#555555;stroke:#555555;stroke-width:0.8;" x="73.95" xlink:href="#mcdb0b4299b" y="627.116"/>
      </g>
     </g>
     <g id="text_31">
      <!-- 60 -->
      <g style="fill:#555555;" transform="translate(47.8625 632.814828)scale(0.15 -0.15)">
       <use xlink:href="#DejaVuSerif-54"/>
       <use x="63.623047" xlink:href="#DejaVuSerif-48"/>
      </g>
     </g>
    </g>
    <g id="ytick_19">
     <g id="line2d_73">
      <path clip-path="url(#pbb400496ad)" d="M 73.95 545.108 
L 462.766667 545.108 
" style="fill:none;stroke:#ffffff;stroke-linecap:square;stroke-width:0.8;"/>
     </g>
     <g id="line2d_74">
      <g>
       <use style="fill:#555555;stroke:#555555;stroke-width:0.8;" x="73.95" xlink:href="#mcdb0b4299b" y="545.108"/>
      </g>
     </g>
     <g id="text_32">
      <!-- 80 -->
      <g style="fill:#555555;" transform="translate(47.8625 550.806828)scale(0.15 -0.15)">
       <use xlink:href="#DejaVuSerif-56"/>
       <use x="63.623047" xlink:href="#DejaVuSerif-48"/>
      </g>
     </g>
    </g>
    <g id="ytick_20">
     <g id="line2d_75">
      <path clip-path="url(#pbb400496ad)" d="M 73.95 463.1 
L 462.766667 463.1 
" style="fill:none;stroke:#ffffff;stroke-linecap:square;stroke-width:0.8;"/>
     </g>
     <g id="line2d_76">
      <g>
       <use style="fill:#555555;stroke:#555555;stroke-width:0.8;" x="73.95" xlink:href="#mcdb0b4299b" y="463.1"/>
      </g>
     </g>
     <g id="text_33">
      <!-- 100 -->
      <g style="fill:#555555;" transform="translate(38.31875 468.798828)scale(0.15 -0.15)">
       <use xlink:href="#DejaVuSerif-49"/>
       <use x="63.623047" xlink:href="#DejaVuSerif-48"/>
       <use x="127.246094" xlink:href="#DejaVuSerif-48"/>
      </g>
     </g>
    </g>
    <g id="text_34">
     <!-- Accurate Identification (%) -->
     <g style="fill:#555555;" transform="translate(30.575313 757.494688)rotate(-90)scale(0.18 -0.18)">
      <use xlink:href="#DejaVuSerif-65"/>
      <use x="72.216797" xlink:href="#DejaVuSerif-99"/>
      <use x="128.222656" xlink:href="#DejaVuSerif-99"/>
      <use x="184.228516" xlink:href="#DejaVuSerif-117"/>
      <use x="248.632812" xlink:href="#DejaVuSerif-114"/>
      <use x="296.435547" xlink:href="#DejaVuSerif-97"/>
      <use x="356.054688" xlink:href="#DejaVuSerif-116"/>
      <use x="396.240234" xlink:href="#DejaVuSerif-101"/>
      <use x="455.419922" xlink:href="#DejaVuSerif-32"/>
      <use x="487.207031" xlink:href="#DejaVuSerif-73"/>
      <use x="526.708984" xlink:href="#DejaVuSerif-100"/>
      <use x="590.722656" xlink:href="#DejaVuSerif-101"/>
      <use x="649.902344" xlink:href="#DejaVuSerif-110"/>
      <use x="714.306641" xlink:href="#DejaVuSerif-116"/>
      <use x="754.492188" xlink:href="#DejaVuSerif-105"/>
      <use x="786.474609" xlink:href="#DejaVuSerif-102"/>
      <use x="823.486328" xlink:href="#DejaVuSerif-105"/>
      <use x="855.46875" xlink:href="#DejaVuSerif-99"/>
      <use x="911.474609" xlink:href="#DejaVuSerif-97"/>
      <use x="971.09375" xlink:href="#DejaVuSerif-116"/>
      <use x="1011.279297" xlink:href="#DejaVuSerif-105"/>
      <use x="1043.261719" xlink:href="#DejaVuSerif-111"/>
      <use x="1103.466797" xlink:href="#DejaVuSerif-110"/>
      <use x="1167.871094" xlink:href="#DejaVuSerif-32"/>
      <use x="1199.658203" xlink:href="#DejaVuSerif-40"/>
      <use x="1238.671875" xlink:href="#DejaVuSerif-37"/>
      <use x="1333.691406" xlink:href="#DejaVuSerif-41"/>
     </g>
    </g>
   </g>
   <g id="PathCollection_9">
    <defs>
     <path d="M 0 3.383948 
C 0.897434 3.383948 1.758231 3.027394 2.392813 2.392813 
C 3.027394 1.758231 3.383948 0.897434 3.383948 0 
C 3.383948 -0.897434 3.027394 -1.758231 2.392813 -2.392813 
C 1.758231 -3.027394 0.897434 -3.383948 0 -3.383948 
C -0.897434 -3.383948 -1.758231 -3.027394 -2.392813 -2.392813 
C -3.027394 -1.758231 -3.383948 -0.897434 -3.383948 0 
C -3.383948 0.897434 -3.027394 1.758231 -2.392813 2.392813 
C -1.758231 3.027394 -0.897434 3.383948 0 3.383948 
z
" id="C6_0_e71931a2c1"/>
    </defs>
    <g clip-path="url(#pbb400496ad)">
     <use style="fill:#e24a33;stroke:#e24a33;stroke-width:2.025;" x="129.032361" xlink:href="#C6_0_e71931a2c1" y="476.1985"/>
    </g>
    <g clip-path="url(#pbb400496ad)">
     <use style="fill:#e24a33;stroke:#e24a33;stroke-width:2.025;" x="258.637917" xlink:href="#C6_0_e71931a2c1" y="482.463"/>
    </g>
    <g clip-path="url(#pbb400496ad)">
     <use style="fill:#e24a33;stroke:#e24a33;stroke-width:2.025;" x="388.243472" xlink:href="#C6_0_e71931a2c1" y="489.8665"/>
    </g>
   </g>
   <g id="line2d_77">
    <path clip-path="url(#pbb400496ad)" d="M 129.032361 476.1985 
L 258.637917 482.463 
L 388.243472 489.8665 
" style="fill:none;stroke:#e24a33;stroke-dasharray:9.99,4.32;stroke-dashoffset:0;stroke-width:2.7;"/>
   </g>
   <g id="line2d_78">
    <path clip-path="url(#pbb400496ad)" d="M 129.032361 485.88 
L 129.032361 468.795 
" style="fill:none;stroke:#e24a33;stroke-linecap:square;stroke-width:2.7;"/>
   </g>
   <g id="line2d_79">
    <path clip-path="url(#pbb400496ad)" d="M 258.637917 491.0055 
L 258.637917 474.49 
" style="fill:none;stroke:#e24a33;stroke-linecap:square;stroke-width:2.7;"/>
   </g>
   <g id="line2d_80">
    <path clip-path="url(#pbb400496ad)" d="M 388.243472 503.5345 
L 388.243472 477.3375 
" style="fill:none;stroke:#e24a33;stroke-linecap:square;stroke-width:2.7;"/>
   </g>
   <g id="PathCollection_10">
    <defs>
     <path d="M 0 3.383948 
C 0.897434 3.383948 1.758231 3.027394 2.392813 2.392813 
C 3.027394 1.758231 3.383948 0.897434 3.383948 0 
C 3.383948 -0.897434 3.027394 -1.758231 2.392813 -2.392813 
C 1.758231 -3.027394 0.897434 -3.383948 0 -3.383948 
C -0.897434 -3.383948 -1.758231 -3.027394 -2.392813 -2.392813 
C -3.027394 -1.758231 -3.383948 -0.897434 -3.383948 0 
C -3.383948 0.897434 -3.027394 1.758231 -2.392813 2.392813 
C -1.758231 3.027394 -0.897434 3.383948 0 3.383948 
z
" id="C7_0_5b76ca64c5"/>
    </defs>
    <g clip-path="url(#pbb400496ad)">
     <use style="fill:#348abd;stroke:#348abd;stroke-width:2.025;" x="148.473194" xlink:href="#C7_0_5b76ca64c5" y="473.685272"/>
    </g>
    <g clip-path="url(#pbb400496ad)">
     <use style="fill:#348abd;stroke:#348abd;stroke-width:2.025;" x="278.07875" xlink:href="#C7_0_5b76ca64c5" y="479.813587"/>
    </g>
    <g clip-path="url(#pbb400496ad)">
     <use style="fill:#348abd;stroke:#348abd;stroke-width:2.025;" x="407.684306" xlink:href="#C7_0_5b76ca64c5" y="489.28462"/>
    </g>
   </g>
   <g id="line2d_81">
    <path clip-path="url(#pbb400496ad)" d="M 148.473194 473.685272 
L 278.07875 479.813587 
L 407.684306 489.28462 
" style="fill:none;stroke:#348abd;stroke-dasharray:9.99,4.32;stroke-dashoffset:0;stroke-width:2.7;"/>
   </g>
   <g id="line2d_82">
    <path clip-path="url(#pbb400496ad)" d="M 148.473194 479.256467 
L 148.473194 468.671196 
" style="fill:none;stroke:#348abd;stroke-linecap:square;stroke-width:2.7;"/>
   </g>
   <g id="line2d_83">
    <path clip-path="url(#pbb400496ad)" d="M 278.07875 486.499022 
L 278.07875 473.685272 
" style="fill:none;stroke:#348abd;stroke-linecap:square;stroke-width:2.7;"/>
   </g>
   <g id="line2d_84">
    <path clip-path="url(#pbb400496ad)" d="M 407.684306 502.09837 
L 407.684306 478.699348 
" style="fill:none;stroke:#348abd;stroke-linecap:square;stroke-width:2.7;"/>
   </g>
   <g id="patch_19">
    <path d="M 73.95 804.8 
L 73.95 463.1 
" style="fill:none;stroke:#ffffff;stroke-linecap:square;stroke-linejoin:miter;"/>
   </g>
   <g id="patch_20">
    <path d="M 462.766667 804.8 
L 462.766667 463.1 
" style="fill:none;stroke:#ffffff;stroke-linecap:square;stroke-linejoin:miter;"/>
   </g>
   <g id="patch_21">
    <path d="M 73.95 804.8 
L 462.766667 804.8 
" style="fill:none;stroke:#ffffff;stroke-linecap:square;stroke-linejoin:miter;"/>
   </g>
   <g id="patch_22">
    <path d="M 73.95 463.1 
L 462.766667 463.1 
" style="fill:none;stroke:#ffffff;stroke-linecap:square;stroke-linejoin:miter;"/>
   </g>
   <g id="text_35">
    <!-- Happiness -->
    <g transform="translate(210.787583 457.1)scale(0.216 -0.216)">
     <use xlink:href="#DejaVuSerif-72"/>
     <use x="87.207031" xlink:href="#DejaVuSerif-97"/>
     <use x="146.826172" xlink:href="#DejaVuSerif-112"/>
     <use x="210.839844" xlink:href="#DejaVuSerif-112"/>
     <use x="274.853516" xlink:href="#DejaVuSerif-105"/>
     <use x="306.835938" xlink:href="#DejaVuSerif-110"/>
     <use x="371.240234" xlink:href="#DejaVuSerif-101"/>
     <use x="430.419922" xlink:href="#DejaVuSerif-115"/>
     <use x="481.738281" xlink:href="#DejaVuSerif-115"/>
    </g>
   </g>
  </g>
  <g id="axes_5">
   <g id="patch_23">
    <path d="M 482.466667 804.8 
L 871.283333 804.8 
L 871.283333 463.1 
L 482.466667 463.1 
z
" style="fill:#e5e5e5;"/>
   </g>
   <g id="matplotlib.axis_9">
    <g id="xtick_13">
     <g id="line2d_85">
      <g>
       <use style="fill:#555555;stroke:#555555;stroke-width:0.8;" x="547.269444" xlink:href="#m9c8e58d2cf" y="804.8"/>
      </g>
     </g>
     <g id="text_36">
      <!-- Dynamic -->
      <g style="fill:#555555;" transform="translate(514.005773 822.984375)scale(0.15 -0.15)">
       <use xlink:href="#DejaVuSerif-68"/>
       <use x="80.175781" xlink:href="#DejaVuSerif-121"/>
       <use x="136.669922" xlink:href="#DejaVuSerif-110"/>
       <use x="201.074219" xlink:href="#DejaVuSerif-97"/>
       <use x="260.693359" xlink:href="#DejaVuSerif-109"/>
       <use x="355.517578" xlink:href="#DejaVuSerif-105"/>
       <use x="387.5" xlink:href="#DejaVuSerif-99"/>
      </g>
     </g>
    </g>
    <g id="xtick_14">
     <g id="line2d_86">
      <g>
       <use style="fill:#555555;stroke:#555555;stroke-width:0.8;" x="676.875" xlink:href="#m9c8e58d2cf" y="804.8"/>
      </g>
     </g>
     <g id="text_37">
      <!-- Static -->
      <g style="fill:#555555;" transform="translate(654.638672 823.197656)scale(0.15 -0.15)">
       <use xlink:href="#DejaVuSerif-83"/>
       <use x="68.505859" xlink:href="#DejaVuSerif-116"/>
       <use x="108.691406" xlink:href="#DejaVuSerif-97"/>
       <use x="168.310547" xlink:href="#DejaVuSerif-116"/>
       <use x="208.496094" xlink:href="#DejaVuSerif-105"/>
       <use x="240.478516" xlink:href="#DejaVuSerif-99"/>
      </g>
     </g>
    </g>
    <g id="xtick_15">
     <g id="line2d_87">
      <g>
       <use style="fill:#555555;stroke:#555555;stroke-width:0.8;" x="806.480556" xlink:href="#m9c8e58d2cf" y="804.8"/>
      </g>
     </g>
     <g id="text_38">
      <!-- Shuffled -->
      <g style="fill:#555555;" transform="translate(774.490712 823.197656)scale(0.15 -0.15)">
       <use xlink:href="#DejaVuSerif-83"/>
       <use x="68.505859" xlink:href="#DejaVuSerif-104"/>
       <use x="132.910156" xlink:href="#DejaVuSerif-117"/>
       <use x="197.314453" xlink:href="#DejaVuSerif-102"/>
       <use x="234.326172" xlink:href="#DejaVuSerif-102"/>
       <use x="271.337891" xlink:href="#DejaVuSerif-108"/>
       <use x="303.320312" xlink:href="#DejaVuSerif-101"/>
       <use x="362.5" xlink:href="#DejaVuSerif-100"/>
      </g>
     </g>
    </g>
    <g id="text_39">
     <!-- Task -->
     <g style="fill:#555555;" transform="translate(655.44375 843.994375)scale(0.18 -0.18)">
      <use xlink:href="#DejaVuSerif-84"/>
      <use x="66.589844" xlink:href="#DejaVuSerif-97"/>
      <use x="126.208984" xlink:href="#DejaVuSerif-115"/>
      <use x="177.527344" xlink:href="#DejaVuSerif-107"/>
     </g>
    </g>
   </g>
   <g id="matplotlib.axis_10">
    <g id="ytick_21">
     <g id="line2d_88">
      <path clip-path="url(#p8baca7dc02)" d="M 482.466667 791.132 
L 871.283333 791.132 
" style="fill:none;stroke:#ffffff;stroke-linecap:square;stroke-width:0.8;"/>
     </g>
     <g id="line2d_89">
      <g>
       <use style="fill:#555555;stroke:#555555;stroke-width:0.8;" x="482.466667" xlink:href="#mcdb0b4299b" y="791.132"/>
      </g>
     </g>
    </g>
    <g id="ytick_22">
     <g id="line2d_90">
      <path clip-path="url(#p8baca7dc02)" d="M 482.466667 709.124 
L 871.283333 709.124 
" style="fill:none;stroke:#ffffff;stroke-linecap:square;stroke-width:0.8;"/>
     </g>
     <g id="line2d_91">
      <g>
       <use style="fill:#555555;stroke:#555555;stroke-width:0.8;" x="482.466667" xlink:href="#mcdb0b4299b" y="709.124"/>
      </g>
     </g>
    </g>
    <g id="ytick_23">
     <g id="line2d_92">
      <path clip-path="url(#p8baca7dc02)" d="M 482.466667 627.116 
L 871.283333 627.116 
" style="fill:none;stroke:#ffffff;stroke-linecap:square;stroke-width:0.8;"/>
     </g>
     <g id="line2d_93">
      <g>
       <use style="fill:#555555;stroke:#555555;stroke-width:0.8;" x="482.466667" xlink:href="#mcdb0b4299b" y="627.116"/>
      </g>
     </g>
    </g>
    <g id="ytick_24">
     <g id="line2d_94">
      <path clip-path="url(#p8baca7dc02)" d="M 482.466667 545.108 
L 871.283333 545.108 
" style="fill:none;stroke:#ffffff;stroke-linecap:square;stroke-width:0.8;"/>
     </g>
     <g id="line2d_95">
      <g>
       <use style="fill:#555555;stroke:#555555;stroke-width:0.8;" x="482.466667" xlink:href="#mcdb0b4299b" y="545.108"/>
      </g>
     </g>
    </g>
    <g id="ytick_25">
     <g id="line2d_96">
      <path clip-path="url(#p8baca7dc02)" d="M 482.466667 463.1 
L 871.283333 463.1 
" style="fill:none;stroke:#ffffff;stroke-linecap:square;stroke-width:0.8;"/>
     </g>
     <g id="line2d_97">
      <g>
       <use style="fill:#555555;stroke:#555555;stroke-width:0.8;" x="482.466667" xlink:href="#mcdb0b4299b" y="463.1"/>
      </g>
     </g>
    </g>
   </g>
   <g id="PathCollection_11">
    <defs>
     <path d="M 0 3.383948 
C 0.897434 3.383948 1.758231 3.027394 2.392813 2.392813 
C 3.027394 1.758231 3.383948 0.897434 3.383948 0 
C 3.383948 -0.897434 3.027394 -1.758231 2.392813 -2.392813 
C 1.758231 -3.027394 0.897434 -3.383948 0 -3.383948 
C -0.897434 -3.383948 -1.758231 -3.027394 -2.392813 -2.392813 
C -3.027394 -1.758231 -3.383948 -0.897434 -3.383948 0 
C -3.383948 0.897434 -3.027394 1.758231 -2.392813 2.392813 
C -1.758231 3.027394 -0.897434 3.383948 0 3.383948 
z
" id="C8_0_40e1462eda"/>
    </defs>
    <g clip-path="url(#p8baca7dc02)">
     <use style="fill:#e24a33;stroke:#e24a33;stroke-width:2.025;" x="537.549028" xlink:href="#C8_0_40e1462eda" y="590.668"/>
    </g>
    <g clip-path="url(#p8baca7dc02)">
     <use style="fill:#e24a33;stroke:#e24a33;stroke-width:2.025;" x="667.154583" xlink:href="#C8_0_40e1462eda" y="601.4885"/>
    </g>
    <g clip-path="url(#p8baca7dc02)">
     <use style="fill:#e24a33;stroke:#e24a33;stroke-width:2.025;" x="796.760139" xlink:href="#C8_0_40e1462eda" y="599.2105"/>
    </g>
   </g>
   <g id="line2d_98">
    <path clip-path="url(#p8baca7dc02)" d="M 537.549028 590.668 
L 667.154583 601.4885 
L 796.760139 599.2105 
" style="fill:none;stroke:#e24a33;stroke-dasharray:9.99,4.32;stroke-dashoffset:0;stroke-width:2.7;"/>
   </g>
   <g id="line2d_99">
    <path clip-path="url(#p8baca7dc02)" d="M 537.549028 610.031 
L 537.549028 574.138263 
" style="fill:none;stroke:#e24a33;stroke-linecap:square;stroke-width:2.7;"/>
   </g>
   <g id="line2d_100">
    <path clip-path="url(#p8baca7dc02)" d="M 667.154583 619.726738 
L 667.154583 584.958763 
" style="fill:none;stroke:#e24a33;stroke-linecap:square;stroke-width:2.7;"/>
   </g>
   <g id="line2d_101">
    <path clip-path="url(#p8baca7dc02)" d="M 796.760139 620.282 
L 796.760139 578.7085 
" style="fill:none;stroke:#e24a33;stroke-linecap:square;stroke-width:2.7;"/>
   </g>
   <g id="PathCollection_12">
    <defs>
     <path d="M 0 3.383948 
C 0.897434 3.383948 1.758231 3.027394 2.392813 2.392813 
C 3.027394 1.758231 3.383948 0.897434 3.383948 0 
C 3.383948 -0.897434 3.027394 -1.758231 2.392813 -2.392813 
C 1.758231 -3.027394 0.897434 -3.383948 0 -3.383948 
C -0.897434 -3.383948 -1.758231 -3.027394 -2.392813 -2.392813 
C -3.027394 -1.758231 -3.383948 -0.897434 -3.383948 0 
C -3.383948 0.897434 -3.027394 1.758231 -2.392813 2.392813 
C -1.758231 3.027394 -0.897434 3.383948 0 3.383948 
z
" id="C9_0_d7626b8054"/>
    </defs>
    <g clip-path="url(#p8baca7dc02)">
     <use style="fill:#348abd;stroke:#348abd;stroke-width:2.025;" x="556.989861" xlink:href="#C9_0_d7626b8054" y="583.994946"/>
    </g>
    <g clip-path="url(#p8baca7dc02)">
     <use style="fill:#348abd;stroke:#348abd;stroke-width:2.025;" x="686.595417" xlink:href="#C9_0_d7626b8054" y="594.580217"/>
    </g>
    <g clip-path="url(#p8baca7dc02)">
     <use style="fill:#348abd;stroke:#348abd;stroke-width:2.025;" x="816.200972" xlink:href="#C9_0_d7626b8054" y="590.68038"/>
    </g>
   </g>
   <g id="line2d_102">
    <path clip-path="url(#p8baca7dc02)" d="M 556.989861 583.994946 
L 686.595417 594.580217 
L 816.200972 590.68038 
" style="fill:none;stroke:#348abd;stroke-dasharray:9.99,4.32;stroke-dashoffset:0;stroke-width:2.7;"/>
   </g>
   <g id="line2d_103">
    <path clip-path="url(#p8baca7dc02)" d="M 556.989861 600.151413 
L 556.989861 568.395598 
" style="fill:none;stroke:#348abd;stroke-linecap:square;stroke-width:2.7;"/>
   </g>
   <g id="line2d_104">
    <path clip-path="url(#p8baca7dc02)" d="M 686.595417 610.179565 
L 686.595417 579.537989 
" style="fill:none;stroke:#348abd;stroke-linecap:square;stroke-width:2.7;"/>
   </g>
   <g id="line2d_105">
    <path clip-path="url(#p8baca7dc02)" d="M 816.200972 610.179565 
L 816.200972 570.624076 
" style="fill:none;stroke:#348abd;stroke-linecap:square;stroke-width:2.7;"/>
   </g>
   <g id="patch_24">
    <path d="M 482.466667 804.8 
L 482.466667 463.1 
" style="fill:none;stroke:#ffffff;stroke-linecap:square;stroke-linejoin:miter;"/>
   </g>
   <g id="patch_25">
    <path d="M 871.283333 804.8 
L 871.283333 463.1 
" style="fill:none;stroke:#ffffff;stroke-linecap:square;stroke-linejoin:miter;"/>
   </g>
   <g id="patch_26">
    <path d="M 482.466667 804.8 
L 871.283333 804.8 
" style="fill:none;stroke:#ffffff;stroke-linecap:square;stroke-linejoin:miter;"/>
   </g>
   <g id="patch_27">
    <path d="M 482.466667 463.1 
L 871.283333 463.1 
" style="fill:none;stroke:#ffffff;stroke-linecap:square;stroke-linejoin:miter;"/>
   </g>
   <g id="text_40">
    <!-- Sadness -->
    <g transform="translate(631.692188 457.1)scale(0.216 -0.216)">
     <use xlink:href="#DejaVuSerif-83"/>
     <use x="68.505859" xlink:href="#DejaVuSerif-97"/>
     <use x="128.125" xlink:href="#DejaVuSerif-100"/>
     <use x="192.138672" xlink:href="#DejaVuSerif-110"/>
     <use x="256.542969" xlink:href="#DejaVuSerif-101"/>
     <use x="315.722656" xlink:href="#DejaVuSerif-115"/>
     <use x="367.041016" xlink:href="#DejaVuSerif-115"/>
    </g>
   </g>
  </g>
  <g id="axes_6">
   <g id="patch_28">
    <path d="M 890.983333 804.8 
L 1279.8 804.8 
L 1279.8 463.1 
L 890.983333 463.1 
z
" style="fill:#e5e5e5;"/>
   </g>
   <g id="matplotlib.axis_11">
    <g id="xtick_16">
     <g id="line2d_106">
      <g>
       <use style="fill:#555555;stroke:#555555;stroke-width:0.8;" x="955.786111" xlink:href="#m9c8e58d2cf" y="804.8"/>
      </g>
     </g>
     <g id="text_41">
      <!-- Dynamic -->
      <g style="fill:#555555;" transform="translate(922.522439 822.984375)scale(0.15 -0.15)">
       <use xlink:href="#DejaVuSerif-68"/>
       <use x="80.175781" xlink:href="#DejaVuSerif-121"/>
       <use x="136.669922" xlink:href="#DejaVuSerif-110"/>
       <use x="201.074219" xlink:href="#DejaVuSerif-97"/>
       <use x="260.693359" xlink:href="#DejaVuSerif-109"/>
       <use x="355.517578" xlink:href="#DejaVuSerif-105"/>
       <use x="387.5" xlink:href="#DejaVuSerif-99"/>
      </g>
     </g>
    </g>
    <g id="xtick_17">
     <g id="line2d_107">
      <g>
       <use style="fill:#555555;stroke:#555555;stroke-width:0.8;" x="1085.391667" xlink:href="#m9c8e58d2cf" y="804.8"/>
      </g>
     </g>
     <g id="text_42">
      <!-- Static -->
      <g style="fill:#555555;" transform="translate(1063.155339 823.197656)scale(0.15 -0.15)">
       <use xlink:href="#DejaVuSerif-83"/>
       <use x="68.505859" xlink:href="#DejaVuSerif-116"/>
       <use x="108.691406" xlink:href="#DejaVuSerif-97"/>
       <use x="168.310547" xlink:href="#DejaVuSerif-116"/>
       <use x="208.496094" xlink:href="#DejaVuSerif-105"/>
       <use x="240.478516" xlink:href="#DejaVuSerif-99"/>
      </g>
     </g>
    </g>
    <g id="xtick_18">
     <g id="line2d_108">
      <g>
       <use style="fill:#555555;stroke:#555555;stroke-width:0.8;" x="1214.997222" xlink:href="#m9c8e58d2cf" y="804.8"/>
      </g>
     </g>
     <g id="text_43">
      <!-- Shuffled -->
      <g style="fill:#555555;" transform="translate(1183.007378 823.197656)scale(0.15 -0.15)">
       <use xlink:href="#DejaVuSerif-83"/>
       <use x="68.505859" xlink:href="#DejaVuSerif-104"/>
       <use x="132.910156" xlink:href="#DejaVuSerif-117"/>
       <use x="197.314453" xlink:href="#DejaVuSerif-102"/>
       <use x="234.326172" xlink:href="#DejaVuSerif-102"/>
       <use x="271.337891" xlink:href="#DejaVuSerif-108"/>
       <use x="303.320312" xlink:href="#DejaVuSerif-101"/>
       <use x="362.5" xlink:href="#DejaVuSerif-100"/>
      </g>
     </g>
    </g>
    <g id="text_44">
     <!-- Task -->
     <g style="fill:#555555;" transform="translate(1063.960417 843.994375)scale(0.18 -0.18)">
      <use xlink:href="#DejaVuSerif-84"/>
      <use x="66.589844" xlink:href="#DejaVuSerif-97"/>
      <use x="126.208984" xlink:href="#DejaVuSerif-115"/>
      <use x="177.527344" xlink:href="#DejaVuSerif-107"/>
     </g>
    </g>
   </g>
   <g id="matplotlib.axis_12">
    <g id="ytick_26">
     <g id="line2d_109">
      <path clip-path="url(#p6bdd0ecf7b)" d="M 890.983333 791.132 
L 1279.8 791.132 
" style="fill:none;stroke:#ffffff;stroke-linecap:square;stroke-width:0.8;"/>
     </g>
     <g id="line2d_110">
      <g>
       <use style="fill:#555555;stroke:#555555;stroke-width:0.8;" x="890.983333" xlink:href="#mcdb0b4299b" y="791.132"/>
      </g>
     </g>
    </g>
    <g id="ytick_27">
     <g id="line2d_111">
      <path clip-path="url(#p6bdd0ecf7b)" d="M 890.983333 709.124 
L 1279.8 709.124 
" style="fill:none;stroke:#ffffff;stroke-linecap:square;stroke-width:0.8;"/>
     </g>
     <g id="line2d_112">
      <g>
       <use style="fill:#555555;stroke:#555555;stroke-width:0.8;" x="890.983333" xlink:href="#mcdb0b4299b" y="709.124"/>
      </g>
     </g>
    </g>
    <g id="ytick_28">
     <g id="line2d_113">
      <path clip-path="url(#p6bdd0ecf7b)" d="M 890.983333 627.116 
L 1279.8 627.116 
" style="fill:none;stroke:#ffffff;stroke-linecap:square;stroke-width:0.8;"/>
     </g>
     <g id="line2d_114">
      <g>
       <use style="fill:#555555;stroke:#555555;stroke-width:0.8;" x="890.983333" xlink:href="#mcdb0b4299b" y="627.116"/>
      </g>
     </g>
    </g>
    <g id="ytick_29">
     <g id="line2d_115">
      <path clip-path="url(#p6bdd0ecf7b)" d="M 890.983333 545.108 
L 1279.8 545.108 
" style="fill:none;stroke:#ffffff;stroke-linecap:square;stroke-width:0.8;"/>
     </g>
     <g id="line2d_116">
      <g>
       <use style="fill:#555555;stroke:#555555;stroke-width:0.8;" x="890.983333" xlink:href="#mcdb0b4299b" y="545.108"/>
      </g>
     </g>
    </g>
    <g id="ytick_30">
     <g id="line2d_117">
      <path clip-path="url(#p6bdd0ecf7b)" d="M 890.983333 463.1 
L 1279.8 463.1 
" style="fill:none;stroke:#ffffff;stroke-linecap:square;stroke-width:0.8;"/>
     </g>
     <g id="line2d_118">
      <g>
       <use style="fill:#555555;stroke:#555555;stroke-width:0.8;" x="890.983333" xlink:href="#mcdb0b4299b" y="463.1"/>
      </g>
     </g>
    </g>
   </g>
   <g id="PathCollection_13">
    <defs>
     <path d="M 0 3.383948 
C 0.897434 3.383948 1.758231 3.027394 2.392813 2.392813 
C 3.027394 1.758231 3.383948 0.897434 3.383948 0 
C 3.383948 -0.897434 3.027394 -1.758231 2.392813 -2.392813 
C 1.758231 -3.027394 0.897434 -3.383948 0 -3.383948 
C -0.897434 -3.383948 -1.758231 -3.027394 -2.392813 -2.392813 
C -3.027394 -1.758231 -3.383948 -0.897434 -3.383948 0 
C -3.383948 0.897434 -3.027394 1.758231 -2.392813 2.392813 
C -1.758231 3.027394 -0.897434 3.383948 0 3.383948 
z
" id="Ca_0_7a3a5a8c59"/>
    </defs>
    <g clip-path="url(#p6bdd0ecf7b)">
     <use style="fill:#e24a33;stroke:#e24a33;stroke-width:2.025;" x="946.065694" xlink:href="#Ca_0_7a3a5a8c59" y="592.3765"/>
    </g>
    <g clip-path="url(#p6bdd0ecf7b)">
     <use style="fill:#e24a33;stroke:#e24a33;stroke-width:2.025;" x="1075.67125" xlink:href="#Ca_0_7a3a5a8c59" y="609.4615"/>
    </g>
    <g clip-path="url(#p6bdd0ecf7b)">
     <use style="fill:#e24a33;stroke:#e24a33;stroke-width:2.025;" x="1205.276806" xlink:href="#Ca_0_7a3a5a8c59" y="641.923"/>
    </g>
   </g>
   <g id="line2d_119">
    <path clip-path="url(#p6bdd0ecf7b)" d="M 946.065694 592.3765 
L 1075.67125 609.4615 
L 1205.276806 641.923 
" style="fill:none;stroke:#e24a33;stroke-dasharray:9.99,4.32;stroke-dashoffset:0;stroke-width:2.7;"/>
   </g>
   <g id="line2d_120">
    <path clip-path="url(#p6bdd0ecf7b)" d="M 946.065694 616.879238 
L 946.065694 570.7355 
" style="fill:none;stroke:#e24a33;stroke-linecap:square;stroke-width:2.7;"/>
   </g>
   <g id="line2d_121">
    <path clip-path="url(#p6bdd0ecf7b)" d="M 1075.67125 632.825238 
L 1075.67125 586.112 
" style="fill:none;stroke:#e24a33;stroke-linecap:square;stroke-width:2.7;"/>
   </g>
   <g id="line2d_122">
    <path clip-path="url(#p6bdd0ecf7b)" d="M 1205.276806 670.981738 
L 1205.276806 612.8785 
" style="fill:none;stroke:#e24a33;stroke-linecap:square;stroke-width:2.7;"/>
   </g>
   <g id="PathCollection_14">
    <defs>
     <path d="M 0 3.383948 
C 0.897434 3.383948 1.758231 3.027394 2.392813 2.392813 
C 3.027394 1.758231 3.383948 0.897434 3.383948 0 
C 3.383948 -0.897434 3.027394 -1.758231 2.392813 -2.392813 
C 1.758231 -3.027394 0.897434 -3.383948 0 -3.383948 
C -0.897434 -3.383948 -1.758231 -3.027394 -2.392813 -2.392813 
C -3.027394 -1.758231 -3.383948 -0.897434 -3.383948 0 
C -3.383948 0.897434 -3.027394 1.758231 -2.392813 2.392813 
C -1.758231 3.027394 -0.897434 3.383948 0 3.383948 
z
" id="Cb_0_c36f367806"/>
    </defs>
    <g clip-path="url(#p6bdd0ecf7b)">
     <use style="fill:#348abd;stroke:#348abd;stroke-width:2.025;" x="965.506528" xlink:href="#Cb_0_c36f367806" y="552.79625"/>
    </g>
    <g clip-path="url(#p6bdd0ecf7b)">
     <use style="fill:#348abd;stroke:#348abd;stroke-width:2.025;" x="1095.112083" xlink:href="#Cb_0_c36f367806" y="595.694457"/>
    </g>
    <g clip-path="url(#p6bdd0ecf7b)">
     <use style="fill:#348abd;stroke:#348abd;stroke-width:2.025;" x="1224.717639" xlink:href="#Cb_0_c36f367806" y="623.550435"/>
    </g>
   </g>
   <g id="line2d_123">
    <path clip-path="url(#p6bdd0ecf7b)" d="M 965.506528 552.79625 
L 1095.112083 595.694457 
L 1224.717639 623.550435 
" style="fill:none;stroke:#348abd;stroke-dasharray:9.99,4.32;stroke-dashoffset:0;stroke-width:2.7;"/>
   </g>
   <g id="line2d_124">
    <path clip-path="url(#p6bdd0ecf7b)" d="M 965.506528 568.395598 
L 965.506528 536.639783 
" style="fill:none;stroke:#348abd;stroke-linecap:square;stroke-width:2.7;"/>
   </g>
   <g id="line2d_125">
    <path clip-path="url(#p6bdd0ecf7b)" d="M 1095.112083 616.321808 
L 1095.112083 576.195272 
" style="fill:none;stroke:#348abd;stroke-linecap:square;stroke-width:2.7;"/>
   </g>
   <g id="line2d_126">
    <path clip-path="url(#p6bdd0ecf7b)" d="M 1224.717639 647.506576 
L 1224.717639 600.708533 
" style="fill:none;stroke:#348abd;stroke-linecap:square;stroke-width:2.7;"/>
   </g>
   <g id="patch_29">
    <path d="M 890.983333 804.8 
L 890.983333 463.1 
" style="fill:none;stroke:#ffffff;stroke-linecap:square;stroke-linejoin:miter;"/>
   </g>
   <g id="patch_30">
    <path d="M 1279.8 804.8 
L 1279.8 463.1 
" style="fill:none;stroke:#ffffff;stroke-linecap:square;stroke-linejoin:miter;"/>
   </g>
   <g id="patch_31">
    <path d="M 890.983333 804.8 
L 1279.8 804.8 
" style="fill:none;stroke:#ffffff;stroke-linecap:square;stroke-linejoin:miter;"/>
   </g>
   <g id="patch_32">
    <path d="M 890.983333 463.1 
L 1279.8 463.1 
" style="fill:none;stroke:#ffffff;stroke-linecap:square;stroke-linejoin:miter;"/>
   </g>
   <g id="text_45">
    <!-- Surprise -->
    <g transform="translate(1038.411667 457.1)scale(0.216 -0.216)">
     <use xlink:href="#DejaVuSerif-83"/>
     <use x="68.505859" xlink:href="#DejaVuSerif-117"/>
     <use x="132.910156" xlink:href="#DejaVuSerif-114"/>
     <use x="180.712891" xlink:href="#DejaVuSerif-112"/>
     <use x="244.726562" xlink:href="#DejaVuSerif-114"/>
     <use x="292.529297" xlink:href="#DejaVuSerif-105"/>
     <use x="324.511719" xlink:href="#DejaVuSerif-115"/>
     <use x="375.830078" xlink:href="#DejaVuSerif-101"/>
    </g>
   </g>
  </g>
 </g>
 <defs>
  <clipPath id="p08461901f3">
   <rect height="341.7" width="388.816667" x="73.95" y="39.2"/>
  </clipPath>
  <clipPath id="p207361b5ae">
   <rect height="341.7" width="388.816667" x="482.466667" y="39.2"/>
  </clipPath>
  <clipPath id="pbe2c9e19ee">
   <rect height="341.7" width="388.816667" x="890.983333" y="39.2"/>
  </clipPath>
  <clipPath id="pbb400496ad">
   <rect height="341.7" width="388.816667" x="73.95" y="463.1"/>
  </clipPath>
  <clipPath id="p8baca7dc02">
   <rect height="341.7" width="388.816667" x="482.466667" y="463.1"/>
  </clipPath>
  <clipPath id="p6bdd0ecf7b">
   <rect height="341.7" width="388.816667" x="890.983333" y="463.1"/>
  </clipPath>
 </defs>
</svg>
